<?xml version="1.0" encoding="utf-8"?>
<!-- Generator: Adobe Illustrator 24.2.2, SVG Export Plug-In . SVG Version: 6.00 Build 0)  -->
<svg version="1.1" id="Calque_1" xmlns="http://www.w3.org/2000/svg" xmlns:xlink="http://www.w3.org/1999/xlink" x="0px" y="0px"
	 viewBox="0 0 1360.6 1360.6" style="enable-background:new 0 0 1360.6 1360.6;" xml:space="preserve">
<style type="text/css">
	.st0{fill-rule:evenodd;clip-rule:evenodd;fill:#1799C5;}
	.st1{fill-rule:evenodd;clip-rule:evenodd;fill:#90C14D;}
	.st2{fill-rule:evenodd;clip-rule:evenodd;fill:#3F3F3F;}
	.st3{fill:#3F3F3F;}
</style>
<g>
	<g>
		<path class="st0" d="M286.2,573.8c31,13.3,55.6,33.6,72.4,62.7c1,1.8,1.7,4.9,0.8,6.5c-16.5,29.8-41.1,50.8-72.5,64.3
			c20.2-18.2,37.2-38.1,36.7-67.3C323.1,611.3,307.2,591.2,286.2,573.8z"/>
		<path class="st1" d="M154.7,572.8c-21.6,17.5-38.2,37.7-38.8,66.7c-0.5,28.6,15.3,49.1,35.6,67.5c-1.5-0.4-3.2-0.6-4.6-1.3
			c-26.8-13.8-48.6-33.3-64.5-59c-1.8-2.8-2.2-8.5-0.5-11.2c16.8-27.4,39.7-48.1,68.9-61.7C152,573.3,153.4,573.2,154.7,572.8z"/>
	</g>
	<path class="st2" d="M232.7,607.1c0.4,16.9,3.7,19.9,19.7,18.9c7.2,16.7,2.8,34-11.4,44.2c-13.9,10-33.2,8.8-45.9-3
		c-12-11.2-14.9-30.4-6.6-44.7C197.4,606.9,213.8,601,232.7,607.1z"/>
</g>
<g>
	<path class="st3" d="M441.9,640.2v-0.3c0-25.4,18.7-48.1,46.9-48.1c28.1,0,46.6,22.4,46.6,47.8v0.3c0,25.4-18.7,48.1-46.9,48.1
		C460.4,687.9,441.9,665.5,441.9,640.2z M528.2,640.2v-0.3c0-23-16.7-41.8-39.7-41.8c-23,0-39.4,18.6-39.4,41.6v0.3
		c0,23,16.7,41.8,39.7,41.8C511.8,681.7,528.2,663.1,528.2,640.2z"/>
	<path class="st3" d="M560.2,596.9c0-1.9,1.6-3.5,3.5-3.5h34.9c10.5,0,19,3.1,24.2,8.2c3.8,3.8,6,8.8,6,14.6v0.3
		c0,12.6-8.2,19-15.8,22c11.2,2.9,21,9.3,21,22.2v0.3c0,15.5-13.3,25.4-33.3,25.4h-36.9c-1.9,0-3.5-1.6-3.5-3.5V596.9z M597.8,636.3
		c13.9,0,23.9-6.8,23.9-19.1v-0.3c0-10.2-8.4-17.1-23.2-17.1h-31.3v36.5H597.8z M600.9,680c15.9,0,26-7.3,26-19v-0.3
		c0-11.4-10-18.1-28.3-18.1h-31.5V680H600.9z"/>
	<path class="st3" d="M649.7,672.4c-0.3-0.4-0.5-1.2-0.5-1.9c0-1.9,1.6-3.5,3.5-3.5c1.5,0,2.4,0.9,2.8,1.6
		c5.4,8.4,11.5,12.7,21.6,12.7c11.4,0,20.2-8.6,20.2-24.8v-60.3c0-1.9,1.6-3.4,3.5-3.4c1.9,0,3.5,1.6,3.5,3.4v59.7
		c0,10.8-3.3,19-8.5,24.2c-4.9,4.9-11.6,7.4-19,7.4C663.8,687.7,655.3,681.3,649.7,672.4z"/>
	<path class="st3" d="M731.7,682.9v-86c0-1.9,1.6-3.5,3.4-3.5h60c1.7,0,3.2,1.5,3.2,3.2c0,1.7-1.5,3.2-3.2,3.2h-56.6v36.5h50.6
		c1.7,0,3.2,1.5,3.2,3.2s-1.5,3.2-3.2,3.2h-50.6V680h57.2c1.7,0,3.2,1.5,3.2,3.2c0,1.7-1.5,3.2-3.2,3.2h-60.7
		C733.3,686.4,731.7,684.8,731.7,682.9z"/>
	<path class="st3" d="M817.8,640.2v-0.3c0-26.3,19.6-48.1,46.5-48.1c15.4,0,25.1,5.3,34.1,13c0.7,0.7,1.3,1.6,1.3,2.8
		c0,1.9-1.7,3.5-3.6,3.5c-0.9,0-1.9-0.4-2.4-0.9c-7.7-7-16.6-12.1-29.6-12.1c-22.3,0-39.2,18.2-39.2,41.6v0.3
		c0,23.5,17.1,41.8,39.3,41.8c12.6,0,21.5-4.5,30.3-12.9c0.5-0.5,1.3-1.1,2.4-1.1c1.7,0,3.3,1.6,3.3,3.3c0,1.1-0.5,1.9-1.1,2.4
		c-9.4,8.8-19.6,14.5-35.2,14.5C837.5,687.9,817.8,666.8,817.8,640.2z"/>
	<path class="st3" d="M947,599.8h-29.7c-1.7,0-3.2-1.5-3.2-3.2c0-1.7,1.5-3.2,3.2-3.2h66.4c1.7,0,3.2,1.5,3.2,3.2
		c0,1.7-1.5,3.2-3.2,3.2h-29.7v83.6c0,1.9-1.6,3.5-3.5,3.5c-1.9,0-3.5-1.6-3.5-3.5V599.8z"/>
	<path class="st3" d="M1009.6,596.3c0-1.9,1.6-3.4,3.4-3.4c1.9,0,3.5,1.6,3.5,3.4v87.1c0,1.9-1.6,3.5-3.5,3.5
		c-1.9,0-3.4-1.6-3.4-3.5V596.3z"/>
	<path class="st3" d="M1046.3,596.9c0-1.9,1.6-3.5,3.5-3.5h59.3c1.7,0,3.2,1.5,3.2,3.2c0,1.7-1.5,3.2-3.2,3.2h-55.9v38.1h49.9
		c1.7,0,3.2,1.5,3.2,3.2c0,1.7-1.5,3.2-3.2,3.2h-49.9v39.2c0,1.9-1.6,3.5-3.5,3.5c-1.9,0-3.5-1.6-3.5-3.5V596.9z"/>
	<path class="st3" d="M1172.2,675.9c-1.5-1.2-2.1-2.5-2.1-4.4c0-2.5,2.3-4.9,5-4.9c1.3,0,2.7,0.5,3.6,1.3
		c7.3,6.6,15.3,10.5,23.9,10.5c13,0,22.3-8.5,22.3-20.6v-0.3c0-11.7-9.6-19.5-23.1-19.5c-10.9,0-16.5,4.5-18.9,4.5
		c-2,0-3.5-0.8-5.3-2c-1.7-1.2-2.4-3.3-2.3-5.7l2.1-36.4c0.1-3.2,2.4-5,5-5h44.6c2.7,0,4.8,2.1,4.8,4.9c0,2.7-2.1,4.8-4.8,4.8h-40.1
		l-2,29.7c5.4-2.4,10.6-4.1,18.3-4.1c18.1,0,32.1,10.6,32.1,28.4v0.3c0,17.9-13.8,30.5-33.1,30.5
		C1190.4,687.9,1179.8,682.6,1172.2,675.9z"/>
	<path class="st3" d="M1302.1,664.3h-46.2c-3.1,0-5.3-2.1-5.3-5c0-1.9,0.7-3.3,2-5l48.3-58.9c1.6-2,3.1-3.2,5.8-3.2
		c3.2,0,5.6,2.4,5.6,5.4v58h10.5c2.4,0,4.5,2,4.5,4.5c0,2.4-2.1,4.2-4.5,4.2h-10.5V682c0,2.8-2.3,5-5.2,5c-2.8,0-5-2.3-5-5V664.3z
		 M1302.1,655.6v-47.9l-39,47.9H1302.1z"/>
</g>
</svg>
