<?xml version="1.0" encoding="utf-8"?>
<!-- Generator: Adobe Illustrator 24.2.2, SVG Export Plug-In . SVG Version: 6.00 Build 0)  -->
<svg version="1.1" id="Calque_1" xmlns="http://www.w3.org/2000/svg" xmlns:xlink="http://www.w3.org/1999/xlink" x="0px" y="0px"
	 viewBox="0 0 1360.6 1360.6" style="enable-background:new 0 0 1360.6 1360.6;" xml:space="preserve">
<style type="text/css">
	.st0{fill-rule:evenodd;clip-rule:evenodd;fill:#199AC6;}
	.st1{fill-rule:evenodd;clip-rule:evenodd;fill:#91C24B;}
	.st2{fill-rule:evenodd;clip-rule:evenodd;fill:#3F3F3F;}
	.st3{fill:#3F3F3F;}
</style>
<g>
	<g>
		<path class="st0" d="M800.6,395.9c52.4,22.8,93.9,57.6,122.3,107.6c1.7,3.1,2.8,8.5,1.3,11.2c-27.9,51.2-69.5,87.1-122.5,110.3
			c34.2-31.3,62.9-65.4,62.1-115.5C863,460.2,836.1,425.7,800.6,395.9z"/>
		<path class="st1" d="M578.5,394.2c-36.5,30-64.6,64.7-65.5,114.5c-0.9,49.1,25.9,84.2,60.1,115.8c-2.6-0.7-5.4-1-7.7-2.2
			c-45.3-23.7-82.2-57.1-109-101.2c-3-4.9-3.6-14.5-0.9-19.1c28.3-47,67.1-82.5,116.4-105.9C573.9,395,576.3,394.8,578.5,394.2z"/>
	</g>
	<path class="st2" d="M709.3,453c0.8,29,6.3,34.2,33.3,32.5c12.2,28.7,4.7,58.3-19.3,75.8c-23.6,17.2-56.4,15.1-77.8-5.1
		c-20.4-19.2-25.2-52.2-11.3-76.7C649.6,452.6,677.4,442.5,709.3,453z"/>
</g>
<g>
	<path class="st3" d="M110.3,775c-41.1,0-68.4,33.1-68.4,70.1v0.4c0,37,26.9,69.7,68,69.7c41.1,0,68.4-33.1,68.4-70.1v-0.4
		C178.3,807.7,151.3,775,110.3,775z M167.8,845.5c0,33.5-24,60.6-57.5,60.6c-33.5,0-57.9-27.5-57.9-61v-0.4
		c0-33.5,24-60.6,57.5-60.6c33.5,0,57.9,27.5,57.9,61V845.5z"/>
	<path class="st3" d="M291.4,843.2c11-4.5,23.1-13.8,23.1-32.2v-0.4c0-8.5-3.1-15.7-8.7-21.3c-7.6-7.6-19.9-12-35.3-12h-50.9
		c-2.7,0-5,2.3-5,5v125.5c0,2.7,2.3,5,5,5h53.8c29.2,0,48.6-14.3,48.6-37v-0.4C322,856.8,307.7,847.5,291.4,843.2z M224.6,786.6
		h45.7c21.7,0,33.9,10.1,33.9,25v0.4c0,18-14.5,27.9-34.9,27.9h-44.7V786.6z M311.7,875.9c0,17-14.7,27.7-38,27.7h-49.2v-54.4h45.9
		c26.7,0,41.3,9.7,41.3,26.3V875.9z"/>
	<path class="st3" d="M419.4,776.6c-2.7,0-5,2.3-5,5v87.9c0,23.6-12.8,36.2-29.4,36.2c-14.7,0-23.6-6.4-31.6-18.6
		c-0.6-1-1.9-2.3-4.1-2.3c-2.7,0-5,2.3-5,5c0,1,0.4,2.1,0.8,2.7c8.1,13,20.5,22.3,39.3,22.3c10.8,0,20.5-3.7,27.7-10.9
		c7.6-7.5,12.4-19.6,12.4-35.2v-87.2C424.5,778.9,422.1,776.6,419.4,776.6z"/>
	<path class="st3" d="M558.1,903.6h-83.5v-54.4h73.8c2.5,0,4.6-2.1,4.6-4.6s-2.1-4.7-4.6-4.7h-73.8v-53.3h82.5
		c2.5,0,4.6-2.1,4.6-4.7c0-2.5-2.1-4.6-4.6-4.6h-87.5c-2.7,0-5,2.3-5,5v125.5c0,2.7,2.3,5,5,5h88.5c2.5,0,4.6-2.1,4.6-4.7
		C562.8,905.8,560.6,903.6,558.1,903.6z"/>
	<path class="st3" d="M705.7,885.8c-1.6,0-2.7,0.8-3.5,1.6c-12.8,12.2-25.8,18.8-44.2,18.8c-32.3,0-57.3-26.7-57.3-61v-0.4
		c0-34.1,24.6-60.6,57.1-60.6c19,0,32,7.4,43.2,17.6c0.8,0.8,2.1,1.4,3.5,1.4c2.7,0,5.2-2.3,5.2-5c0-1.7-1-3.1-1.9-4.1
		c-13.2-11.2-27.3-19-49.8-19c-39.1,0-67.8,31.8-67.8,70.1v0.4c0,38.9,28.7,69.7,67.4,69.7c22.7,0,37.6-8.3,51.3-21.1
		c0.8-0.8,1.5-1.9,1.5-3.5C710.6,888.1,708.2,885.8,705.7,885.8z"/>
	<path class="st3" d="M832.2,777.3h-96.8c-2.5,0-4.6,2.1-4.6,4.6c0,2.5,2.1,4.7,4.6,4.7h43.4v122c0,2.7,2.3,5,5,5c2.7,0,5-2.3,5-5
		v-122h43.4c2.5,0,4.6-2.1,4.6-4.7C836.9,779.5,834.7,777.3,832.2,777.3z"/>
	<path class="st3" d="M875,776.6c-2.7,0-5,2.3-5,5v127.1c0,2.7,2.3,5,5,5c2.7,0,5-2.3,5-5V781.6C880.1,778.9,877.8,776.6,875,776.6z
		"/>
	<path class="st3" d="M1015.3,777.3h-86.6c-2.7,0-5,2.3-5,5v126.3c0,2.7,2.3,5,5,5c2.7,0,5-2.3,5-5v-57.1h72.8
		c2.5,0,4.7-2.1,4.7-4.7c0-2.5-2.1-4.6-4.7-4.6h-72.8v-55.6h81.5c2.5,0,4.7-2.1,4.7-4.7C1019.9,779.5,1017.8,777.3,1015.3,777.3z"/>
	<path class="st3" d="M1152.8,828.9c-11.2,0-18.8,2.5-26.7,6l2.9-43.4h58.5c3.9,0,7-3.1,7-7c0-4.1-3.1-7.2-7-7.2h-65.1
		c-3.9,0-7.2,2.7-7.4,7.4l-3.1,53.1c-0.2,3.5,0.8,6.6,3.3,8.3c2.7,1.7,4.8,2.9,7.7,2.9c3.5,0,11.6-6.6,27.5-6.6
		c19.8,0,33.7,11.4,33.7,28.5v0.4c0,17.6-13.6,30-32.5,30c-12.6,0-24.2-5.6-34.9-15.3c-1.4-1.2-3.3-1.9-5.2-1.9
		c-4.1,0-7.4,3.5-7.4,7.2c0,2.7,1,4.6,3.1,6.4c11,9.9,26.5,17.6,44.2,17.6c28.1,0,48.2-18.4,48.2-44.5v-0.4
		C1199.7,844.4,1179.2,828.9,1152.8,828.9z"/>
	<path class="st3" d="M1327,868h-15.3v-84.6c0-4.5-3.5-7.9-8.1-7.9c-4.1,0-6.2,1.7-8.5,4.6l-70.5,86c-1.9,2.5-2.9,4.7-2.9,7.4
		c0,4.3,3.3,7.4,7.7,7.4h67.4v25.8c0,4.1,3.3,7.4,7.4,7.4c4.3,0,7.6-3.3,7.6-7.4v-25.8h15.3c3.5,0,6.6-2.7,6.6-6.2
		C1333.5,870.9,1330.4,868,1327,868z M1296.7,868h-56.9l56.9-69.9V868z"/>
</g>
</svg>
