<?xml version="1.0" encoding="utf-8"?>
<!-- Generator: Adobe Illustrator 25.2.1, SVG Export Plug-In . SVG Version: 6.00 Build 0)  -->
<svg version="1.1" id="Calque_1" xmlns="http://www.w3.org/2000/svg" xmlns:xlink="http://www.w3.org/1999/xlink" x="0px" y="0px"
	 viewBox="0 0 1360.6 1360.6" style="enable-background:new 0 0 1360.6 1360.6;" xml:space="preserve">
<style type="text/css">
	.st0{fill:#CC1338;}
	.st1{fill:#6D6D5E;}
	.st2{fill:#939287;}
	.st3{fill:#B9B8B1;}
	.st4{fill:#909083;}
	.st5{fill:#B2B2A9;}
	.st6{fill:#B4B3AB;}
	.st7{fill:#929186;}
	.st8{fill:#909084;}
	.st9{fill:#B2B1AA;}
	.st10{fill:#FEFEFE;}
	.st11{fill:#FDFEFE;}
	.st12{fill:#FEFEFD;}
	.st13{fill:#FEFDFD;}
	.st14{fill:#FDFDFD;}
	.st15{fill:#FDFCFD;}
	.st16{fill:#FDFCFC;}
	.st17{fill:#CC1439;}
	.st18{fill:#CD1539;}
	.st19{fill:#CD1438;}
	.st20{fill:#CD173B;}
	.st21{fill:#FCFCFC;}
</style>
<g>
	<path class="st0" d="M24,905c0-149.8,0-299.6,0-449.4c1-1.3,2.5-1.6,4.1-1.7c2.3-0.1,4.6-0.1,6.9-0.1c250.8,0,501.7,0,752.5,0
		c3.3,0,6.6-0.4,9.8,0.6c2.5,1.9,1,3.8-0.1,5.7c-5,8.3-9.7,16.6-14,25.3c-11.4,23.3-20,47.7-26.9,72.7
		c-5.9,21.6-10.3,43.4-13.4,65.5c-1.6,11.8-2.7,23.6-3.5,35.5c-0.6,9.3-0.9,18.5-0.6,27.7c0.4,15.1,1.7,30.1,3.5,45
		c2.5,20.7,6.4,41.1,11.5,61.2c7.7,30.5,17.9,60,32.4,88c3.4,6.5,7,13,11,19.1c1.2,1.8,2.5,3.8,0.1,5.7c-2.8,1-5.8,0.7-8.7,0.7
		c-65.8,0-131.5,0-197.3,0c-185.1,0-370.2,0-555.3,0c-2.7,0-5.3,0-8-0.1C26.5,906.6,25,906.4,24,905z"/>
	<path class="st0" d="M1336.6,455.6c0,149.8,0,299.6,0,449.4c-0.9,1.2-2.2,1.6-3.7,1.7c-1.8,0.1-3.6,0.1-5.3,0.1
		c-51.3,0-102.5,0-153.8,0c-2.6,0-5.3,0.3-7.9-0.6c-2.4-2-0.9-3.9,0.2-5.7c5-8.4,9.8-16.9,14.1-25.7c11.1-22.4,19.2-45.8,26-69.8
		c6.3-22.3,10.9-45.1,14.1-68.1c1.6-11.4,2.7-22.9,3.4-34.4c0.4-5.3,0.6-10.6,0.7-15.9c0.4-25.8-2.1-51.4-6.3-76.8
		c-4.1-24.9-9.9-49.5-17.7-73.5c-8.6-26.6-19.5-52.2-34.3-76.1c-1.1-1.8-2.7-3.6-0.4-5.7c1.7-0.8,3.5-0.7,5.2-0.7
		c53.1-0.1,106.2,0,159.3,0C1332.5,453.9,1334.9,453.5,1336.6,455.6z"/>
	<path class="st1" d="M1165.4,455.7c80.4,133.8,80.4,315.4,0,449.2c0.8,4.3-2.6,6.8-4.7,9.5c-16.3,20.9-36.5,37-60.2,48.9
		c-17.8,9-37.1,13.3-56.5,17.2c-12,2.4-24.1,2.7-36.2,3.3c-1.1,0.1-2.3-0.4-3.3,0.4c-0.8,0-1.5,0-2.3,0c-1.2-0.8-2.6-0.2-3.9-0.4
		c-1.5,0.2-3-0.4-4.5,0.4c-8.1,0-16.3,0-24.4,0c-1.5-0.8-3.1-0.2-4.6-0.4c-1.5,0.2-3.1-0.4-4.6,0.4c-0.8,0-1.5,0-2.3,0
		c-5.7-1.8-11.6-1.4-17.4-2.2c-25.9-3.6-51.6-7.9-75.4-19.3c-27.5-13.2-50-32.4-67.2-57.7c-22.7-35.3-36.6-74.3-46.6-114.7
		c-7.3-29.6-11.8-59.6-13.7-90.1c-2.2-37.3,2-73.9,9.3-110.3c7.6-37.4,19-73.7,36-108c4.5-9,9.6-17.6,14.9-26.1
		c10.3-15.1,22.6-28.2,37.1-39.4c22.9-17.6,48.8-27.9,77-33.1c14.7-2.7,29.5-4.9,44.4-6c0.8-0.1,1.8,0.3,2.3-0.8c0.8,0,1.5,0,2.3,0
		c1.5,0.8,3.1,0.2,4.6,0.4c1.5-0.2,3.1,0.4,4.6-0.4c7.6,0,15.2,0,22.9,0c1.7,0.8,3.5,0.2,5.3,0.4c1.5-0.2,3.2,0.4,4.6-0.4
		c0.5,0,1,0,1.5,0c7.5,1,15.1,0.8,22.6,1.4c12.4,1.1,24.5,3.7,36.6,6.4c21.8,4.8,41.8,13.9,60,26.7c15.9,11.2,29.5,24.7,40.7,40.6
		C1165.4,452.7,1166.1,454.1,1165.4,455.7z"/>
	<path class="st2" d="M998.4,377.1c-1.8-0.1-3.7,0.5-5.4-0.7c1.8,0,3.6,0,5.3,0C998.9,376.6,998.9,376.8,998.4,377.1z"/>
	<path class="st3" d="M998.4,377.1c0-0.2-0.1-0.5-0.1-0.7c1.5,0,3,0,4.6,0C1001.6,377.8,999.9,376.9,998.4,377.1z"/>
	<path class="st4" d="M970.2,376.4c-1.4,1.2-3.1,0.7-4.7,0.6c-0.2-0.2-0.3-0.3-0.2-0.5c0.1-0.1,0.2-0.2,0.3-0.2
		C967.1,376.4,968.7,376.4,970.2,376.4z"/>
	<path class="st5" d="M965.6,376.4c0,0.2-0.1,0.4-0.1,0.6c-1.5,0-3.1,0.7-4.5-0.6C962.6,376.4,964.1,376.4,965.6,376.4z"/>
	<path class="st6" d="M960.3,984.2c1.3-1.4,3-0.6,4.5-0.6c0.6,0.1,0.6,0.3,0.1,0.6C963.3,984.2,961.8,984.2,960.3,984.2z"/>
	<path class="st7" d="M964.9,984.2c0-0.2-0.1-0.4-0.1-0.6c1.6,0,3.2-0.6,4.7,0.6C967.9,984.2,966.4,984.2,964.9,984.2z"/>
	<path class="st8" d="M993.8,984.2c1.4-1.2,3.1-0.7,4.7-0.6c0.2,0.2,0.3,0.3,0.2,0.5c-0.1,0.1-0.2,0.2-0.3,0.2
		C996.8,984.2,995.3,984.2,993.8,984.2z"/>
	<path class="st9" d="M998.4,984.2c0-0.2,0.1-0.4,0.1-0.6c1.3,0,2.6-0.7,3.7,0.6C1000.9,984.2,999.6,984.2,998.4,984.2z"/>
	<path class="st10" d="M106.7,710.5c8.3,3,10.7,7.1,10.2,17.4c-0.3,7.1-4.4,12.4-11.4,13.8c-9.7,1.9-19.5,0.6-29.2,0.9
		c-1.8,0.1-1.6-1.2-1.7-2.4c0-19.2,0-38.3,0-57.5c0-1.4,0.2-2.4,2.1-2.4c8.2,0.1,16.5-0.2,24.7,0.4c8.6,0.6,12.8,4.3,14,10.9
		C117.1,701,114.8,706.1,106.7,710.5z"/>
	<path class="st10" d="M207.5,712.2c8.4,1.7,10.1,7.5,9.9,14.6c-0.1,4.4-0.1,8.9,0.8,13.3c0.4,2-0.2,2.7-2.3,2.6
		c-2.1-0.2-4.4-0.3-6.5,0c-3.5,0.5-4.6-1.4-4.7-4.2c-0.2-4.2,0-8.4-0.2-12.6c-0.3-6.4-3.2-9-9.7-8.9c-2,0-2.6,0.7-2.6,2.6
		c0.1,6.5-0.2,13,0.1,19.4c0.1,3.2-1,3.8-3.9,3.7c-9.4-0.1-9.4,0-9.4-9.5c0-16.4,0.1-32.8-0.1-49.1c0-2.7,0.6-3.8,3.5-3.7
		c6.3,0.2,12.7,0.1,19,0.1c9.1,0,14,3.7,15.7,11.8C219.3,701.8,216.1,708.5,207.5,712.2z"/>
	<path class="st10" d="M511.9,712.3c9,1.6,10.1,7.9,10,15c0,4.4,0,8.9,0.9,13.2c0.4,1.8-0.3,2.2-1.9,2.2c-1.9-0.1-3.8,0-5.7,0
		c-5.6,0-5.8-0.2-6-6c-0.2-4.6,0.4-9.1-0.5-13.7c-0.9-4.3-6.7-7.4-10.8-5.9c-1.5,0.6-1.1,1.8-1.1,2.9c0,6.5-0.1,12.9,0,19.4
		c0.1,2.7-0.8,3.4-3.4,3.4c-9.8,0-9.8,0.1-9.8-9.9c0-16.2,0.1-32.5-0.1-48.7c0-3.1,0.9-3.8,3.9-3.7c6.2,0.2,12.4,0.1,18.7,0.1
		c9.2,0,14.1,3.6,15.7,11.7C523.7,702,520.7,708.4,511.9,712.3z"/>
	<path class="st10" d="M614,680.4c8.4,0,8.4,0,10.6,8c4.6,17,9.1,34,13.9,50.9c0.8,2.9,0.1,3.4-2.6,3.4c-10.4,0-10.5,0.1-12.8-9.9
		c-0.7-3-1.7-4.3-5-4c-3.4,0.3-6.8,0.2-10.3,0c-2.4-0.1-3.9,0.4-4.1,3.1c0,0.5-0.2,1-0.4,1.5c-2.5,9.3-2.5,9.2-11.8,9.3
		c-2.8,0-3.5-0.5-2.7-3.4c3.7-12.8,7.1-25.6,10.7-38.4c1.6-5.6,3.3-11.2,4.6-16.8c0.7-2.9,1.9-4.1,4.9-3.7
		C610.6,680.6,612.3,680.4,614,680.4z"/>
	<path class="st10" d="M309,742.6c-6.8,0-6.8,0-8.4-6.7c-1.7-7-1.7-7.1-8.9-7c-3.4,0-7.6-1.4-9.9,0.7c-2.1,1.9-2.4,6-2.9,9.2
		c-0.5,3.2-2,4-5.1,3.9c-9-0.2-9-0.1-6.6-8.7c4.6-16.7,9.3-33.4,13.8-50.2c0.7-2.7,1.9-3.7,4.7-3.5c3.3,0.2,6.6,0.2,9.9,0
		c2.7-0.2,3.9,0.6,4.7,3.4c4.8,18.5,9.8,37,15,55.4c0.9,3.2,0.1,3.8-2.8,3.5C311.3,742.5,310.1,742.6,309,742.6z"/>
	<path class="st10" d="M321.8,704.7c0-7.1,0.1-14.2,0-21.3c0-2.3,0.7-3,3-3c10.1-0.1,10.1-0.2,10.1,9.9c0,10.7,0,21.3,0,32
		c0,1.6,0,3.3,0.3,4.9c0.9,4.8,3.8,7.2,8,7c4.2-0.2,6.9-2.9,7.5-7.6c0.2-1.2,0.1-2.5,0.1-3.8c0-13.1,0.1-26.1-0.1-39.2
		c0-2.5,0.7-3.2,3.2-3.2c10,0,10-0.1,10,9.7c0,11.4,0,22.8,0,34.2c0,10.6-5.2,16.8-15.6,18.8c-4.8,0.9-9.6,0.7-14.3-0.7
		c-7.3-2.2-11.6-7.6-12.1-15.3c-0.2-3.8-0.1-7.6-0.2-11.4C321.7,712,321.8,708.4,321.8,704.7z"/>
	<path class="st10" d="M168.9,705.1c0,6.5,0.1,12.9,0,19.4c-0.1,10.4-5.3,16.6-15.5,18.6c-4.9,1-9.9,0.7-14.7-0.8
		c-7.2-2.3-11.6-7.3-11.8-14.7c-0.4-15-0.2-30-0.3-44.9c0-1.6,0.5-2.1,2.2-2.3c10.9-0.9,10.9-1,10.9,9.8c0,10.5,0,21.1,0,31.6
		c0,0.9,0,1.8,0,2.7c0.2,6.2,3.1,9.7,8,9.7c4.9,0,8-3.5,8-9.6c0.1-13.5,0.1-26.9,0-40.4c0-2.9,0.6-3.9,3.7-3.8
		c9.4,0.2,9.4,0,9.4,9.5C168.9,694.9,168.9,700,168.9,705.1z"/>
	<path class="st10" d="M662.2,743.4c-2-0.1-4.3,0-6.5-0.4c-10.3-2.1-12.4-10.3-12.2-17.9c0-1.3,0.6-1.8,1.9-1.8c1.6,0,3.3,0,4.9,0
		c5.7,0,5.7,0,6.8,5.6c0.6,3,2.4,4.6,5.4,5c2.8,0.4,5.4,0,6.9-2.7c1.5-2.8,1.5-5.7-0.5-8.2c-1.8-2.4-4.3-3.9-6.8-5.4
		c-3.8-2.2-7.7-4.3-11.2-7.2c-6.3-5.2-7.8-11.9-5.8-19.5c1.9-7.1,7.3-10,14-11c4.2-0.6,8.3-0.7,12.5,0.3c7.9,1.8,12.4,8.3,11.4,16.4
		c-0.2,1.6-0.8,1.9-2.2,1.8c-1.4-0.1-2.8-0.1-4.2,0c-3.8,0.3-6.9,0.5-7.1-5c-0.1-3.7-4.1-5.2-7.9-4c-3.4,1.1-4.9,5.2-3.4,8.8
		c1.1,2.6,3.3,4.1,5.6,5.5c3.7,2.2,7.6,4.1,11.1,6.5c8,5.4,10.7,13.5,7.7,22.6c-2,6.3-8,10.2-16.1,10.5
		C665.3,743.5,663.9,743.4,662.2,743.4z"/>
	<path class="st10" d="M411.8,723.9c2.8-11.6,5.6-23.1,8.3-34.7c2.1-8.8,2-8.7,11-8.8c3.2-0.1,4.1,0.3,3.2,3.9
		c-5.1,18.4-9.9,36.9-14.7,55.5c-0.6,2.3-1.5,3.1-3.8,3c-3-0.2-6.1-0.3-9.1,0c-2.6,0.2-3.4-1-4-3.3c-4.5-18.6-9.1-37.2-13.7-55.7
		c-0.7-2.6-0.2-3.4,2.7-3.4c10.4,0.1,10.3,0,12.4,10.2c2.3,11.2,4.7,22.3,7,33.4C411.4,723.9,411.6,723.9,411.8,723.9z"/>
	<path class="st10" d="M440.9,711.6c0-9.4,0.1-18.8,0-28.2c0-2.3,0.7-3,3-3c9.4,0.1,18.8,0.1,28.2,0c2.4,0,2.9,0.8,3,3.1
		c0,6.8,0.1,6.8-6.8,6.8c-3.8,0-7.6,0.1-11.4,0c-2.2-0.1-2.9,0.7-2.7,2.8c0.4,4-1.7,9.1,0.9,11.7c2.3,2.3,7.2,0.4,11,0.6
		c0.3,0,0.5,0,0.8,0c6.7,0,7.5,1,6.4,7.9c-0.3,1.9-1.5,1.7-2.7,1.7c-4.4,0-8.9,0.1-13.3,0c-2.2-0.1-3.2,0.5-3.1,3
		c0.2,4.1,0.2,8.1,0,12.2c-0.1,2.5,0.9,2.9,3.1,2.8c5.3-0.1,10.7,0,16-0.1c2,0,2.6,0.6,2.6,2.6c0.2,7.2,0.3,7.2-7.1,7.2
		c-8.1,0-16.2-0.1-24.4,0.1c-2.6,0.1-3.5-0.7-3.4-3.4C441,730.1,440.9,720.8,440.9,711.6z"/>
	<path class="st10" d="M226.8,711.2c0-9.1,0.1-18.3-0.1-27.4c0-2.6,0.6-3.5,3.3-3.5c9.1,0.2,18.3,0.2,27.4,0c2.7,0,3.5,0.7,3.4,3.4
		c-0.1,6.4,0,6.4-6.3,6.4c-4.1,0-8.1,0.1-12.2,0c-1.8,0-2.5,0.5-2.4,2.4c0.1,3.4,0.1,6.8,0,10.3c-0.1,2,0.8,2.6,2.7,2.6
		c4.3-0.1,8.6,0.1,12.9-0.1c2.5-0.1,3.5,0.5,3.5,3.3c-0.1,6.4,0,6.4-6.4,6.4c-3.4,0-6.9,0.1-10.3,0c-2.2-0.1-2.5,1-2.4,2.8
		c0.1,4.1,0.1,8.1,0,12.2c-0.1,2.3,0.5,3.1,2.9,3c5.1-0.2,10.1,0,15.2-0.1c2.3-0.1,3.3,0.4,3.3,3c-0.1,6.8,0.1,6.8-6.9,6.8
		c-8,0-16-0.1-24,0.1c-2.9,0.1-3.9-0.6-3.9-3.7C226.9,729.7,226.8,720.5,226.8,711.2z"/>
	<path class="st10" d="M177.1,562.2c0,5.1,0.2,10.1-0.8,15.2c-1.6,8.6-6.8,13.3-15.6,13.8c-1.8,0.1-3.5,0.1-5.3,0.1
		c-9.4-0.4-14.9-5.1-16.3-14.4c-1.4-9.7-1.4-19.5,0-29.2c1.2-8.7,6.2-13.1,14.9-14.2c2.8-0.3,5.6-0.3,8.3,0.1
		c8.2,1.4,12.5,5.6,14,13.8C177.3,552.3,177.1,557.3,177.1,562.2z"/>
	<path class="st10" d="M112.5,591.3c-3.9,0.1-6.6-0.1-9.3-0.9c-6.1-2-10.4-9.6-9-15.9c0.2-1.1,0.6-1.5,1.7-1.5c2.9,0,5.8,0.1,8.8,0
		c2.5-0.1,1.6,1.8,1.7,2.9c0.3,4.5,1.9,6.6,5.5,7c2.4,0.2,4.6-0.3,5.9-2.6c1.4-2.4,1.3-4.9-0.2-7.2c-1.5-2.3-3.8-3.6-6.1-5
		c-3.8-2.3-7.8-4.3-11.1-7.3c-5.3-4.8-6.3-10.9-4.4-17.4c1.7-5.9,6.3-8.6,12.1-9.5c3.9-0.6,7.8-0.7,11.7,0.2
		c7.1,1.6,11,6.8,10.5,14.1c0,0.4,0.1,1-0.1,1.1c-2.9,2.3-6.2,0.4-9.3,1c-1.6,0.3-2-0.5-2.3-2.1c-0.9-5-2.9-6.8-6.4-6.2
		c-4.6,0.8-6.4,5.7-3.6,9.7c1.4,2,3.5,3.2,5.6,4.4c2.9,1.6,5.8,3.1,8.5,5c7.3,4.8,9.7,11.9,7.3,20.2c-1.8,6.4-7,9.7-15.7,10.1
		C113.2,591.3,112.3,591.3,112.5,591.3z"/>
	<path class="st10" d="M301,562.7c-0.6,5.6-0.1,11.1-1.1,16.5c-1.6,7.9-6,11.8-13.8,12c-9.1,0.2-13.8-2.9-15.4-11.2
		c-2.2-11.4-2.1-22.9,0.1-34.3c1.3-7,4.7-9.6,11.7-10.3c11.2-1.1,16.1,2.4,17.7,13.6C300.7,553.6,300.7,558.3,301,562.7z"/>
	<path class="st10" d="M234.9,563.6c0-6.8-0.2-12.9,1.4-18.8c1.7-6.2,4.6-8.5,10.9-9.3c2.4-0.3,4.8-0.2,7.2,0
		c5.3,0.5,9,3.3,10.1,8.4c2.7,12.6,2.9,25.4,0,38c-1.5,6.7-6.4,9.4-14.2,9.3c-7.5,0-11.7-2.9-13.8-9.5c-0.5-1.7-0.8-3.4-1.1-5.2
		C234.7,572,235,567.4,234.9,563.6z"/>
	<path class="st10" d="M220.6,566.7c-1.9,0.9-3.3,1.8-4.9,2.2c-7.3,2.1-13.5-1.8-14.9-9.4c-0.8-4.2-0.7-8.4,0.2-12.5
		c1.6-7.9,6.6-11.8,14.8-11.9c8.5,0,13.5,3.4,14.9,11.6c1.9,10.9,2.2,22-0.3,32.9c-2.4,10.9-16.1,15.6-25.2,9.1
		c-3.4-2.4-3.9-6-4.3-9.7c-0.1-1.3,0.5-1.5,1.5-1.5c1.9,0,3.8,0.1,5.7,0c2.2-0.1,4.1-0.2,4.4,3c0.2,2,2.1,2.6,4.1,2.5
		c2.2-0.1,3.2-1.5,3.6-3.3C221,575.5,220.7,571.3,220.6,566.7z"/>
	<path class="st10" d="M571.4,680.4c5.7,0,11.4,0.1,17.1-0.1c2.7-0.1,3.8,0.4,3.7,3.5c-0.2,7.1,0,7.1-7.2,7.1c-7.2,0-7.2,0-7.2,7.3
		c0,13.7-0.1,27.4,0.1,41.1c0,2.7-0.8,3.4-3.4,3.3c-9.7-0.1-9.7,0-9.7-9.5c0-12.9-0.1-25.9,0.1-38.8c0-2.6-0.5-3.7-3.3-3.4
		c-2.9,0.3-5.8-0.1-8.7,0.1c-2.1,0.1-2.5-0.7-2.5-2.6c-0.2-8-0.3-8,7.5-8C562.3,680.4,566.9,680.4,571.4,680.4z"/>
	<path class="st10" d="M73.5,800.3c0-5.5,0-10.9,1.4-16.2c1.6-6.1,5.3-9.9,11.6-11.1c3.7-0.7,7.3-0.9,10.9-0.1
		c7.5,1.5,12.3,8.7,11.1,16.2c0,0.2,0,0.6-0.1,0.7c-3,2.1-6.3,0.5-9.4,0.9c-2,0.3-1.8-1.3-1.8-2.5c0-0.8,0-1.5-0.2-2.3
		c-0.5-2.4-1-4.9-4.1-5.2c-3.2-0.3-5.3,1.2-6.4,4.2c-1,2.8-1.1,5.7-1.3,8.6c-0.4,6.6-0.4,13.2,0.5,19.7c0.2,1.5,0.7,3,1.3,4.3
		c1,2.6,3.2,3.5,5.8,3.3c2.7-0.2,3.9-2.1,4.3-4.6c0.4-2.1,0-5.3,1.2-6c1.8-1.1,4.7-0.2,7-0.6c3.8-0.6,4,1.3,3.6,4.4
		c-1.5,10.7-5.9,14.9-16.4,15c-11.1,0.1-16.9-4.7-18.4-15C73.5,809.4,73.5,804.9,73.5,800.3z"/>
	<path class="st11" d="M423.1,563.8c-0.3,5.9-0.5,11.7-2.4,17.3c-2.3,6.8-6.8,10.3-13,10.3c-6.2,0-11.2-3.5-13.1-10.2
		c-3.4-11.8-3.4-23.8,0.4-35.5c2.1-6.3,6.5-9.3,12.4-9.4c6-0.1,10.3,2.9,12.8,9C422.7,551.1,422.8,557.5,423.1,563.8z"/>
	<path class="st11" d="M476.1,555.2c10-2.1,16.4,1.1,19.3,9.6c3.3,9.5-0.6,21.1-8.4,25c-8.9,4.5-20-0.9-21.9-10.8
		c-0.4-1.9,0-2.9,2.1-3c1.3-0.1,2.6-0.1,3.8-0.4c1.8-0.4,2.7,0,3.2,2c0.9,3.2,2.9,5.5,6.5,5.2c3.6-0.3,5.1-2.9,5.8-6.1
		c0.7-2.9,0.7-5.8-0.1-8.7c-1.5-5.5-7-7.6-11.2-3.9c-2.6,2.3-4.9,1.8-7.6,1.3c-1.8-0.3-2-1-1.7-2.5c1.3-7.9,2.6-15.8,3.8-23.6
		c0.3-1.7,0.9-2.3,2.7-2.3c6.5,0.1,12.9,0.1,19.4,0c2.2-0.1,2.4,0.9,2.5,2.7c0.2,7.1,0.3,7.1-6.9,7.1c-1.3,0-2.5,0-3.8,0
		C475.9,546.9,475.9,546.9,476.1,555.2z"/>
	<path class="st11" d="M368.6,581c5.1,0,9.8,0.2,14.4-0.1c2.9-0.2,3.9,0.8,3.5,3.6c-0.2,1.2-0.1,2.5,0,3.8c0.1,1.4-0.3,2.1-1.9,2.1
		c-9.9,0-19.8,0-29.7,0c0.5-6.5,3.2-11.7,7.1-16.4c4-4.7,8.2-9.3,12.3-14c2.2-2.6,3.4-5.6,3.1-9.1c-0.3-3.6-2.3-5.9-5.5-6.2
		c-3.3-0.3-5.6,1.4-6.7,4.9c-0.3,1.1,0.1,3.2-1.3,3.2c-2.5,0.1-5-0.4-7.5-1c-1-0.2-0.4-1.6-0.3-2.4c1-9.1,8.2-14.3,17.9-13.2
		c7.9,0.9,13.3,8.3,12.3,16.8c-0.8,7.1-4.6,12.4-9.3,17.4C374.2,573.7,370.8,576.4,368.6,581z"/>
	<path class="st12" d="M431.5,792.9c2.6-2.7,5.2-3.9,8.4-4c6.1-0.2,9.9,3.4,9.9,9.4c0,8.9-0.1,17.8,0.1,26.6c0,2.3-0.4,3.3-3,3.3
		c-7.7-0.1-7.7,0.1-7.7-7.7c0-6.5,0-12.9,0-19.4c0-2.7-0.4-5.4-3.8-5.5c-3.7-0.2-4,2.8-4.2,5.5c0,0.9,0,1.8,0,2.7
		c0,7-0.2,14,0.1,20.9c0.1,3-0.9,3.6-3.6,3.5c-7.1-0.2-7.1,0-7.1-7.2c0-9.4,0.1-18.8-0.1-28.1c0-2.5,0.6-3.5,3.2-3.2
		c1.4,0.2,2.8,0.1,4.2,0C430,789.4,431.6,789.8,431.5,792.9z"/>
	<path class="st10" d="M320.9,823.5c-2.7,3.5-5.9,5.5-10.2,5.4c-4.8-0.1-8.2-2.7-9.4-7.3c-2.8-10.5,2-17.2,12.9-17.8
		c0.8,0,1.5,0,2.3-0.1c1.6-0.3,4.2,1.2,4-2.3c-0.1-2.6,0.5-5.6-3.3-6.3c-2.7-0.5-4.6,0.7-4.9,3.4c-0.2,2.1-1.2,2.5-2.9,2.3
		c-1.1-0.1-2.3,0-3.4,0c-4.7,0-5-0.5-3.5-4.9c1.3-3.8,4.1-5.7,7.8-6.5c4.1-0.9,8.3-0.8,12.5,0.2c5.3,1.3,7.9,4.2,8.2,9.6
		c0.5,9.1-0.3,18.3,0.5,27.4c0,0.4,0,1-0.1,1.1c-2.7,1-5.5,0.3-8.2,0.4c-2.1,0.1-1.3-1.8-1.7-2.8
		C321.1,824.8,321.1,824.3,320.9,823.5z"/>
	<path class="st10" d="M136,810.6c-1.9,0-3.9-0.3-5.7,0.1c-1.6,0.3-4.4-1.8-4.6,2c-0.2,4.8,1.5,8.9,4.2,9.3c3,0.5,4.7-1.4,4.9-4
		c0.2-2.7,1.5-3,3.7-2.8c1.3,0.1,2.6,0.2,3.8,0c3.4-0.5,4.1,0.9,3.2,4c-1.6,5.1-4.9,8.1-10.1,9.2c-12.1,2.8-19.3-2.5-20.1-14.8
		c-0.4-5.2-0.5-10.4,0.9-15.5c1.2-4.4,4-7.3,8.4-8.4c4-1.1,8.1-1,12,0c6,1.6,8.5,6,9.2,11.7c1.2,9.2,1.2,9.2-8,9.2
		C137.3,810.6,136.6,810.6,136,810.6z"/>
	<path class="st10" d="M412.5,809c0.1,3,0.1,6.1-0.5,9.1c-1.8,7.7-6.3,11-15.4,10.8c-8.3-0.1-13-3.7-14.3-11.2
		c-1-5.8-1.1-11.6-0.1-17.4c1.1-6.6,4.9-10.3,11.6-11c1.8-0.2,3.6-0.3,5.3-0.2c8.5,0.7,12.5,4.6,13.4,13.1
		C412.6,804.4,412.5,806.7,412.5,809z"/>
	<path class="st10" d="M544.5,711.7c0,9.3-0.1,18.5,0,27.8c0,2.4-0.5,3.3-3.1,3.3c-10,0-10,0.1-10-10c0-16.2,0.1-32.5-0.1-48.7
		c0-2.7,0.4-3.7,3.5-3.7c9.7,0.1,9.7,0,9.7,9.6C544.5,697.2,544.5,704.4,544.5,711.7z"/>
	<path class="st10" d="M315.2,549.3c-3.3,1.8-5.6,4-9.1,5.3c0-3.2,0-6.1,0-9c0-0.1,0-0.3,0-0.4c0.2-0.8,11.6-9.1,12.4-9.2
		c8.7-0.5,8.7-0.5,8.7,8.2c0,14.2-0.1,28.4,0.1,42.6c0,2.8-0.4,3.9-3.6,3.8c-8.5-0.2-8.5,0-8.5-8.4
		C315.2,571.3,315.2,560.6,315.2,549.3z"/>
	<path class="st10" d="M273.9,808.9c-0.1,3-0.3,6.1,0.4,9.1c0.5,2.3,1.5,4.1,4.2,4c2.6-0.1,3.7-1.6,4.5-3.9c0.5-1.4-0.4-3.8,1.8-4
		c2.9-0.3,5.8,0,8.7,0.2c0.8,0.1,0.5,1,0.5,1.6c0.1,5.5-3.2,10.2-8.3,11.9c-4.6,1.5-9.2,1.5-13.8,0.1c-4.2-1.3-6.8-4.4-7.8-8.6
		c-1.5-6.7-1.6-13.6-0.2-20.3c1.3-6,4.9-9.1,11-9.9c3.7-0.5,7.3-0.3,10.9,0.8c2.4,0.8,4.3,2.1,5.7,4.2c1.8,2.6,3.6,6.3,2,8.4
		c-1.8,2.3-5.9,0.7-9,0.7c-1.6,0-1.2-1.7-1.3-2.7c-0.3-2.9-1.6-4.8-4.8-4.7c-3.3,0.1-4.2,2.5-4.4,5.2
		C273.8,803.6,273.9,806.2,273.9,808.9z"/>
	<path class="st13" d="M74.2,562.2c0-8.4,0.1-16.7,0-25.1c0-2.4,0.7-3,3-3c9-0.1,9-0.2,9,8.8c0,14.6-0.1,29.1,0.1,43.7
		c0,2.8-0.4,4-3.6,3.9c-8.4-0.2-8.4,0-8.4-8.6C74.2,575.4,74.2,568.8,74.2,562.2z"/>
	<path class="st10" d="M222.1,812.3c0-4.4,0-8.9,0-13.3c0-1.7,0-3.1-2.3-2.8c-2.6,0.4-2.5-1.4-2.4-3.1c0.1-1.6-0.7-3.9,2.4-3.5
		c2.2,0.3,2.5-1,2.4-2.7c-0.1-0.6,0-1.3,0-1.9c-0.1-10.2,3.4-12.3,13.8-12.1c1.5,0,2.6,0.5,2.1,2.2c-0.5,1.6,1.5,4.1-1.7,4.9
		c-3,0.7-5.1,6.2-3.5,8.9c0.4,0.7,1,0.7,1.6,0.7c2.9-0.4,3.3,1.1,3.3,3.5c0,2.6-0.8,3.4-3.3,3.1c-2.4-0.3-1.7,1.7-1.8,2.9
		c0,8.6-0.1,17.3,0,25.9c0,2.6-0.8,3.1-3.2,3.1c-7.5-0.1-7.5,0-7.5-7.4C222.1,817.9,222.1,815.1,222.1,812.3z"/>
	<path class="st14" d="M443,551.7c-3.2,2.7-5.8,4.9-8.9,6.4c-1.7,0.8-2.6,1.1-2.7-1.4c-0.3-4.2,0.2-7.4,4.6-9.5
		c3.3-1.6,6.1-4.4,7.3-8c1.5-4.3,4.8-2.7,7.5-2.9c1.5-0.1,1.2,1.4,1.2,2.3c0,16.5,0,33,0,49.5c0,1.8-0.6,2.3-2.4,2.4
		c-6.6,0.3-6.6,0.4-6.6-6.4C443,573.5,443,563,443,551.7z"/>
	<path class="st10" d="M350.8,778.8c0,2.5,0.1,4.4,0,6.3c-0.2,2.9-0.2,5,3.9,4.7c2.8-0.2,1.2,2.7,1.5,4.2c0.3,1.4-0.2,2.6-2,2.3
		c-3.4-0.6-3.6,1.3-3.5,3.9c0.1,5.8,0.1,11.7,0,17.5c0,2.4,0.7,4,3.4,3.9c3.4-0.1,1.6,2.4,1.9,3.8c0.3,1.5,0.2,2.8-2.1,3
		c-3.3,0.2-6.6,0.4-9.6-1.2c-2.9-1.6-4.2-4.3-4.2-7.6c0-6.8,0-13.7,0-20.5c0-1.8-0.2-3-2.4-2.7c-2.5,0.3-2.2-1.6-2-3
		c0.1-1.4-1-3.7,1.9-3.5c2,0.1,2.9-0.6,2.5-2.6c-0.6-2.9,0.9-4.3,3.5-5.2C345.9,781.2,348,780,350.8,778.8z"/>
	<path class="st10" d="M175.6,790c3-0.1,4.5-1.4,3.8-4.6c-0.2-1-0.1-1.9,1.2-2.4c3-1.2,6-2.6,9.4-4.2c0,2.2,0,3.9,0,5.7
		c-0.1,2.9-0.8,5.8,4.1,5.4c2.5-0.2,1.1,2.5,1.3,3.9c0.2,1.2,0.4,2.9-1.7,2.5c-4-0.8-3.8,1.8-3.8,4.4c0.1,5.6,0.1,11.1,0,16.7
		c0,2.5,0.5,4.4,3.5,4.2c3.1-0.1,1.7,2.2,1.8,3.5c0.1,1.3,0.9,3.1-1.8,3.2c-2.3,0.1-4.5,0.3-6.8-0.1c-4.7-0.9-7.3-3.8-7.3-8.7
		c-0.1-6.3-0.2-12.7,0.1-19c0.1-3.1-0.6-4.7-3.9-4.5C175,794,175,792,175.6,790z"/>
	<path class="st13" d="M163.9,794.5c2.7-3.4,4.9-5.1,8-5.4c1.5-0.1,2.4-0.1,2.3,1.8c-0.1,1.8-0.1,3.6,0,5.3c0.1,1.6-0.5,2-2.1,2.2
		c-5.6,0.6-7.2,2.4-7.3,8.1c-0.1,6.2-0.1,12.4,0,18.6c0.1,2.3-0.6,3-3,3c-7.8,0-7.8,0.1-7.8-7.6c0-9.2,0.1-18.5,0-27.7
		c0-2.4,0.5-3.6,3.1-3.2c1,0.2,2,0.1,3,0C163.2,789.2,165,789.9,163.9,794.5z"/>
	<path class="st13" d="M372.8,809.1c0,5.3-0.1,10.6,0,15.9c0,2.1-0.3,3.1-2.8,3.1c-7.9,0.1-7.9,0.2-7.9-7.9c0-9.2,0.1-18.5-0.1-27.7
		c0-2.3,0.7-3,3-3c7.7-0.1,7.7-0.2,7.7,7.4C372.8,801,372.8,805,372.8,809.1z"/>
	<path class="st13" d="M212.1,808.7c0,5.6-0.1,11.2,0,16.7c0.1,2.2-0.7,2.7-2.8,2.8c-7.9,0.1-7.9,0.2-7.9-7.8
		c0-9.2,0.1-18.5-0.1-27.7c0-2.3,0.6-3,3-3c7.8,0,7.8-0.1,7.8,7.7C212.1,801.1,212.1,804.9,212.1,808.7z"/>
	<path class="st13" d="M254.2,808.6c0,5.6-0.1,11.1,0,16.7c0.1,2.1-0.6,2.8-2.7,2.8c-8,0.1-8,0.2-8-7.8c0-9.2,0.1-18.5,0-27.7
		c0-2.3,0.6-3,3-3.1c7.8-0.1,7.8-0.2,7.8,7.3C254.2,800.8,254.2,804.7,254.2,808.6z"/>
	<path class="st13" d="M350.2,585.3c0,5.1,0,5.1-4.8,5.1c-4.6,0-4.6,0-4.6-5.4c0-6-0.7-5.2,4.8-5.2
		C350.9,579.9,350.1,579.1,350.2,585.3z"/>
	<path class="st13" d="M340.8,557.1c0.1-6.9-0.7-6.1,4.7-6.1c5.5,0,4.7-0.9,4.7,5.7c0,4.9,0,4.5-5,5
		C340.3,562.1,340.5,559.5,340.8,557.1z"/>
	<path class="st13" d="M367.1,781.6c-1.4-0.3-4,0.9-4.7-0.6c-0.8-1.9-0.3-4.5-0.3-6.7c0-0.6,0.4-1,0.9-1c2.9,0,5.8-0.1,8.7,0.1
		c1.3,0.1,0.9,1.3,1,2.1C373.3,781.6,373.2,781.6,367.1,781.6z"/>
	<path class="st15" d="M248.9,781.6c-5.5,0-6.6-1.4-5.4-6.9c0.1-0.6,0.2-1.3,1-1.4c2.9-0.1,5.8-0.2,8.7,0c1.7,0.1,0.9,1.8,0.9,2.8
		C254.4,781.6,254.3,781.6,248.9,781.6z"/>
	<path class="st16" d="M205.9,781.6c-1.3-0.3-3.7,0.9-4.3-0.7c-0.7-2-0.3-4.5-0.2-6.8c0-1.1,1-0.9,1.7-0.9c1.4,0,2.8,0.2,4.2,0
		c3.8-0.6,5.2,0.7,4.7,4.6C211.7,781.6,212,781.6,205.9,781.6z"/>
	<path class="st13" d="M175.6,790c0,2,0,4,0,5.9C174.4,794,174.4,792,175.6,790z"/>
	<path class="st10" d="M754.7,680.1c1-66,13.1-129.7,38.7-190.7c11.4-27.2,27.7-51,51.5-69c19.5-14.8,41.6-23.5,65.3-28.5
		c51.5-10.7,102.9-10.3,153.8,2.9c44.4,11.5,76.5,38.7,97.6,79.3c14.5,28,23.7,57.8,31.1,88.3c7.5,30.9,12.7,62.1,14.2,93.9
		c3.4,73.1-9.4,143.4-36.5,211.2c-8.8,21.9-20.8,42-37.5,59c-21.3,21.6-47.3,34.6-76.6,41.2c-52,11.7-104,11.5-155.7-1.3
		c-45.3-11.2-78.2-38.2-99.7-79.4c-14.9-28.5-24.2-59-31.7-90.1c-8.3-34.2-13.3-68.9-14.4-104.2
		C754.6,688.5,754.7,684.3,754.7,680.1z"/>
	<path class="st0" d="M87.9,724.2c0-0.5-0.2-1.1,0-1.5c1.1-2.4-3-7.3,3.6-7.2c9.4,0.1,12.2,1.9,12.3,8.4c0.1,5.9-2.6,8.9-8.2,9
		c-7.8,0.2-7.8,0.2-7.8-7.6C87.9,724.9,87.9,724.6,87.9,724.2z"/>
	<path class="st17" d="M87.9,697.8c0-8.2,0.7-8.9,8.9-7.5c4,0.7,6.7,4.2,6.3,8.6c-0.3,4.3-2.8,6.7-7.1,6.9
		C87.9,706.3,87.9,706.3,87.9,697.8z"/>
	<path class="st0" d="M192.2,698.5c0-0.9-0.2-1.9,0-2.6c0.7-1.8-1.9-4.9,1.6-5.6c5.6-1.1,8.9,0.7,10,4.8c2,7.7-1.5,12.4-9,12.3
		c-2.2,0-2.9-0.7-2.7-2.8C192.4,702.6,192.2,700.5,192.2,698.5z"/>
	<path class="st18" d="M496.7,698.5c0-0.9-0.3-1.9,0.1-2.6c0.8-1.9-2.1-5.2,2-5.6c6.4-0.7,9.1,1,9.9,5.6c0.4,2.7,0.3,5.3-0.8,7.8
		c-1.4,3.1-7.2,5.2-10.2,3.6c-1.1-0.5-0.8-1.5-0.8-2.3C496.7,702.8,496.7,700.7,496.7,698.5z"/>
	<path class="st17" d="M613.5,694.5c1.7,7.3,3.2,14.6,5.1,21.8c0.7,2.8-0.2,3-2.4,2.9c-1.9-0.1-3.8-0.2-5.7,0
		c-2.5,0.2-3.4-0.4-2.7-3.1c1.8-7.2,3.3-14.5,4.9-21.7C612.9,694.4,613.2,694.5,613.5,694.5z"/>
	<path class="st17" d="M290.2,694.5c1.9,8.1,3.8,16.3,5.7,24.4c-12.3,1.3-12.3,1.3-9.7-10.2c1.1-4.7,2.1-9.4,3.2-14.2
		C289.7,694.5,290,694.5,290.2,694.5z"/>
	<path class="st0" d="M165.4,562.4c-0.6,4.9,0.1,9.9-1.2,14.8c-0.9,3.4-2.6,5.7-6.5,5.7c-3.7-0.1-5.6-2.4-6.2-5.6
		c-1.7-9.9-1.7-19.9,0-29.9c0.6-3.3,2.7-5.5,6.3-5.5c3.8,0,5.6,2.4,6.5,5.8C165.5,552.5,164.8,557.5,165.4,562.4z"/>
	<path class="st19" d="M289.7,563c0.1,4.9,0,9.9-0.6,14.8c-0.3,2.4-0.5,4.9-3.9,5.1c-3.4,0.2-4.1-2.4-4.2-4.7
		c-0.7-10.1-0.6-20.3-0.1-30.4c0.1-2.4,1.1-4.5,4.1-4.5c3,0,3.8,2.1,4.1,4.5C289.8,552.9,289.8,558,289.7,563z"/>
	<path class="st17" d="M254.7,563c0,4.9,0.2,9.9-0.1,14.8c-0.1,2-0.4,4.4-3.1,5.1c-2.8,0.6-4.6-0.9-5-4.7
		c-0.7-7.2-0.9-14.4-0.6-21.6c0.1-2.9,0.3-5.8,0.6-8.7c0.2-2.5,1.1-4.5,4.1-4.5c3.1-0.1,4,2.2,4.1,4.5
		C254.9,552.9,254.7,558,254.7,563C254.7,563,254.7,563,254.7,563z"/>
	<path class="st17" d="M220.7,552c-0.1,2.6,0,5-1.1,7.3c-0.8,1.6-2,2.6-3.9,2.5c-1.9-0.1-3-1.2-3.5-3c-1.2-4.2-1.2-8.5,0-12.7
		c0.5-1.9,1.7-3.1,3.7-3.2c2-0.1,3.2,1.2,3.9,3C220.8,547.9,220.4,550.1,220.7,552z"/>
	<path class="st0" d="M413.5,564c-0.1,4.6,0.1,9.2-1,13.6c-0.6,2.5-1.5,5.1-4.7,5.2c-3.2,0.1-4.3-2.4-4.8-5c-1.7-9.3-1.6-18.7,0-28
		c0.4-2.6,1.6-5,4.8-5c3,0,3.9,2.4,4.6,4.8C413.7,554.3,413.4,559.2,413.5,564z"/>
	<path class="st18" d="M320.5,813.9c0,0.7,0,1,0,1.4c-0.2,2.8-0.5,5.7-3.9,6.7c-1.8,0.5-3.7,0.4-4.6-1.6c-1.3-2.9-1.5-6,0.4-8.7
		c1.7-2.3,4.6-2.3,7-1.8C321.6,810.3,320,812.7,320.5,813.9z"/>
	<path class="st20" d="M130.8,804.9c-1.7-1.5-5,1.6-5.1-2.5c-0.1-4.2,1.8-6.9,4.9-6.9c3.2-0.1,5,2.4,5,6.7
		C135.7,806.8,132,803.1,130.8,804.9z"/>
	<path class="st17" d="M402,808.9c-0.2,3.3,0.1,6.6-0.8,9.8c-0.6,2.3-2,3.4-4.4,3.3c-2.3,0-3.6-1.4-3.9-3.4
		c-1.1-6.4-1.3-12.8-0.2-19.2c0.4-2.3,1.8-3.6,4.2-3.6c2.3,0,3.8,1,4.4,3.3C402.3,802.3,401.9,805.6,402,808.9z"/>
	<path class="st1" d="M826.9,680.2c0.5-53.8,8.6-106.3,28.2-156.7c4.5-11.5,9.2-22.8,17.4-32.3c12.4-14.6,28.2-23.1,46.7-27.4
		c43.4-10.3,86.8-10.1,129.9,1.3c26.5,7,44.6,23.8,55.3,49.1c13,30.8,21.4,62.8,26.6,95.7c4.5,28.4,6.3,57,5.2,85.7
		c-2.1,52.1-11.4,102.7-31.8,151c-11.3,26.6-30.7,43.2-58.7,50c-44.1,10.7-88.2,10.6-132.1-1.2c-24.1-6.5-41.7-21.2-52.3-44.1
		c-13.4-29.1-21.8-59.7-27.3-91.2C829.2,733.7,826.8,707,826.9,680.2z"/>
	<path class="st1" d="M789.3,662.7c2.3-4,5.1-7,9.7-7.5c7.8-0.8,13.6,3.6,14.1,11.4c0.5,7.6,0.2,15.2,0.2,22.8
		c0,1.6-0.7,2.2-2.3,2.2c-13.6,0-27.1,0.1-40.7,0.1c-1.4,0-1.9-0.3-1.9-1.9c0.2-7.5-0.5-14.9,0.4-22.4c0.7-6.1,2.9-9.3,7.6-10.5
		C781.9,655.6,785.7,657.3,789.3,662.7z"/>
	<path class="st1" d="M1072.1,920.9c7,1.6,10.3,5.9,10.6,12.2c0.3,6.6-3.4,10.9-9.1,13.7c-4.4,2.2-9,3.2-14,2.8
		c-5.8-0.5-10.2-3.2-12.3-8.7c-2.2-5.6-1.1-10.7,4.2-14.9c-5.6-1.7-8.8-4.9-8.4-10.7c0.4-5.9,4.3-9.2,9.4-11.3
		c3.5-1.5,7.2-2.3,11.1-2.1c5,0.2,9.2,1.9,11.5,6.7C1077.3,913.1,1075.9,917.1,1072.1,920.9z"/>
	<path class="st1" d="M1114.5,501.7c-6.1-7.3-6.1-7.3,0.7-13.2c6.3-5.5,5.7-13-1.4-18c-1.3-0.9-1.9,0-2.6,0.6
		c-3.5,2.6-6.9,5.2-10.3,7.9c-1.8,1.5-2.9,1.7-4.4-0.4c-3.9-5.4-4.1-5.3,1.4-9.4c9.4-7.2,18.8-14.3,28.1-21.5
		c1.9-1.5,2.9-1.7,4.4,0.5c4.3,6,9.4,11.3,12.9,17.9c4.2,7.9,1.1,15.6-6.9,18c-2.6,0.8-5,0.6-7.4-0.7c-0.9-0.5-2.1-0.9-1.8,1
		c0.8,4.2-1.8,6.9-4.4,9.5C1120.3,496.5,1117.4,499,1114.5,501.7z"/>
	<path class="st1" d="M939.3,933.1c-4.3-3.3-6.7-6.9-5-12.1c1.8-5.3,5.9-7.7,11.2-8.4c3.8-0.5,7.6-0.4,11.3,0.6
		c5.2,1.3,9.1,4.2,10.3,9.6c1.2,5.3-1.4,9-6.4,11.6c6.3,3.4,8,8.7,6.4,14.9c-1.6,6.4-6.6,9.3-12.8,10.3c-4.2,0.7-8.3,0.3-12.4-0.9
		c-5.9-1.9-10.1-5.5-10.7-11.9C930.5,940.5,932.8,935.8,939.3,933.1z"/>
	<path class="st1" d="M814.1,534.7c3.5-3.4,7.2-4,11.3-3.1c2.6,0.6,5.3,0.9,7.8,1.7c1.3,0.4,4.4-1.5,3.7,2.3c-1.2,6.7-2,7.6-6.1,6.6
		c-2.5-0.6-4.9-1.3-7.4-1.8c-4.4-0.8-6.7,0.5-8.4,4.6c-3.7,8.6-3.7,8.6,5.2,11.2c2.1,0.6,4.1,1.4,6.2,1.8c3.1,0.5,3.5,1.9,2.5,4.7
		c-1.9,5.6-1.7,5.7-7.5,4c-11.5-3.4-23-7-34.6-10.3c-2.5-0.7-2.9-1.7-2.1-4c2.4-7.3,3.7-15,7.4-21.9c3.5-6.5,10.6-8.4,16.9-4.7
		C812.2,527.5,813.7,530.4,814.1,534.7z"/>
	<path class="st1" d="M1147.6,672.5c0.3-7.3,1.9-13.9,9.3-17.4c1.7-0.8,3.9-2.4,5.4-0.2c1.6,2.3,0.2,7.6-2.2,8.5
		c-6.9,2.4-6.1,14.6-2.5,17.8c2.3,2,5.5,1.4,7.5-1.5c1.9-2.8,2.2-6.1,2.9-9.4c0.5-2.2,0.8-4.5,1.5-6.7c1.6-4.8,4.5-8.2,9.9-8.8
		c5.4-0.6,9.9,1.1,12.7,5.8c4.5,7.6,4.3,15.4,0.5,23.3c-0.8,1.7-2.3,3-4,4c-2,1.2-4.6,3.2-6.5,1.7c-1.7-1.3-0.8-4.5-1-6.9
		c-0.1-1.4,1.1-1.5,2.1-1.7c3.5-0.9,4.3-3.8,4.6-6.7c0.3-3.5,0.1-7-3.1-9.3c-2.3-1.6-4.5-1.4-6,1.4c-1.7,3.1-2.2,6.5-2.9,9.8
		c-0.5,2.6-1.1,5.2-2.1,7.7c-2.1,4.9-5.6,7.7-11.1,7.8c-5.8,0.2-10-2.4-12.6-7.5C1148.3,680.7,1147.6,676.7,1147.6,672.5z"/>
	<path class="st1" d="M1097.2,422.2c-0.2,4.2-3,5.9-7,4.2c-4.9-2.1-9.8-4-14.7-6.2c-2.1-1-3-0.6-3.9,1.6c-2.5,6.1-2.6,6,3.5,8.6
		c3.5,1.5,7,3,10.5,4.3c2,0.7,2.4,1.6,1.5,3.6c-2,5-1.9,5-7,2.8c-3.8-1.6-7.8-3.1-11.5-4.9c-2-1-2.8-0.4-3.7,1.5
		c-4,8.7-4.1,8.7,4.8,12.4c3.7,1.5,7.4,3.2,11.2,4.6c2.9,1,1.6,2.7,0.8,4.1c-0.8,1.4-0.2,4.6-3.7,3.1c-8.8-3.8-17.7-7.5-26.6-11.1
		c-1.9-0.8-1.7-1.7-1.1-3.2c5.3-12.5,10.5-24.9,15.7-37.5c0.8-1.9,1.6-1.8,3.1-1.2c8.7,3.7,17.5,7.3,26.2,11
		C1096.1,420.5,1097.5,420.5,1097.2,422.2z"/>
	<path class="st1" d="M861.4,481.8c-0.4,0.8-0.8,1.5-1.1,2.2c-4.4,8-9,15.9-13.3,23.9c-1.1,2-1.8,2.5-4,1.2
		c-11.4-6.5-23-12.9-34.5-19.2c-2-1.1-2.4-2-1.2-4.1c4.6-8,9.2-16,13.5-24.2c1.5-2.8,2.8-1.6,4.4-0.6c1.5,1,4.5,1.2,2.5,4.5
		c-3.1,5.1-5.8,10.4-8.8,15.5c-1.1,1.9-1.2,2.9,1,4.1c5.8,3.2,5.7,3.4,8.9-2.4c1.9-3.4,3.9-6.8,5.8-10.3c1.9-3.5,3.6-0.4,5.2,0.2
		c1.5,0.5,3.5,1.1,1.9,3.7c-2.6,4.2-4.7,8.7-7.3,12.9c-1.3,2.2-1.4,3.2,1.1,4.6c8.1,4.4,8,4.5,12.5-3.6c2-3.5,3.9-7.1,5.9-10.6
		c0.5-0.9,0.8-2.4,2.4-1.3C858,479.5,860.2,479.9,861.4,481.8z"/>
	<path class="st1" d="M820,610.5c-0.2,3.2-0.8,7.1-2.8,10.8c-3.3,6.4-7.7,9-14.8,8c-9.7-1.4-19.3-3-28.9-4.5c-1.3-0.2-2.1-0.3-2-2
		c0.2-7.3,0.8-7.8,8-6.7c8,1.3,16,2.5,24.1,3.8c4.7,0.7,8.1-1.9,8.9-7.1c0.9-5.5-1.3-9.2-6.1-10c-8.8-1.4-17.5-2.7-26.3-4.1
		c-1.5-0.2-3.9,0.3-4.1-1.7c-0.3-2.6,0.2-5.3,1.3-7.8c0.4-1,1.9-0.3,2.8-0.2c9.5,1.5,19,3,28.6,4.5C815.9,594.7,820,600.6,820,610.5
		z"/>
	<path class="st1" d="M956.4,430.7c0.3,6.6-2.5,9.9-6.2,12.3c-6.3,4-13.2,5.2-20.4,3c-5.1-1.5-8.4-4.8-9.3-10.4
		c-1.4-9.5-2.9-19-4.6-28.5c-0.4-2.5,0-3.2,2.6-3.6c6.4-1,6.4-1.1,7.4,5.4c1.3,8.1,2.6,16.3,3.9,24.4c0.8,4.8,4.1,7,9.4,6.3
		c5.2-0.7,8.2-3.9,7.5-8.6c-1.3-9.2-2.7-18.3-4.4-27.4c-0.6-3.3,0.2-4.4,3.4-4.4c1.1,0,2.3-0.3,3.4-0.6c1.4-0.3,2.1,0,2.4,1.5
		C953.2,410.9,954.9,421.7,956.4,430.7z"/>
	<path class="st1" d="M1001.7,951.6c6.5-0.3,12.2-0.4,17.8-1c3.4-0.4,3.4,1.4,3.4,3.7c0,2.1,0.8,4.1-2.8,4.2
		c-9.2,0.2-18.5,0.9-27.7,1.6c-2.9,0.2-3.3-0.9-2.8-3.3c1.1-5.6,4.5-9.8,8.5-13.6c3.6-3.4,7.4-6.6,10.8-10.1c2.6-2.7,2.4-6,0.8-9.2
		c-1.4-2.8-4.1-3.3-6.9-2.9c-3.7,0.6-5.1,3.4-5.8,6.7c-0.6,2.5-3.8,4-7.3,3.2c-2.4-0.6-1.5-2.8-1.4-4.3c0.6-7.2,5-11.8,12.1-13.1
		c8.3-1.5,15.4,1.3,18.5,7.2c3.2,6.4,1.9,13.7-3.5,18.7C1011.1,943.3,1005.8,946.1,1001.7,951.6z"/>
	<path class="st1" d="M906.1,451.5c-0.5,0.4-0.8,0.7-1.1,0.9c-6.4,4.1-6.5,4.2-12.1-0.8c-1.8-1.5-3-1.7-4.9-0.4
		c-2.7,1.9-5.5,3.6-8.4,5.1c-2.2,1.2-2.9,2.6-2,4.9c0.2,0.5,0.3,1,0.4,1.5c1.2,5.3-0.2,7.7-5.3,9.4c-2.2,0.8-1.9-1-2.1-2.1
		c-2.6-11.9-5.1-23.7-7.6-35.6c-0.2-0.7-0.3-1.5-0.5-2.2c-1.4-6-1.3-5.9,4-9.4c2.2-1.4,3.7-1.6,5.9,0.3c11,9.3,22.2,18.4,33.4,27.6
		C905.7,450.9,905.8,451.2,906.1,451.5z"/>
	<path class="st1" d="M1146.6,628.6c-0.6-2.4,1-2.7,2.2-3.3c6.7-3.5,6.7-3.5,5.8-10.9c0-0.3-0.1-0.5-0.1-0.8c-1-7.4-1-7.4-8.4-8.9
		c-2.4-0.5-5.3-7.4-3.8-9.2c0.6-0.7,1.4-0.4,2.1-0.2c14,2.8,28.1,5.6,42.1,8.4c1.7,0.3,2.7,1,2.7,2.9c0.1,1.6,0.2,3.3,0.7,4.9
		c0.6,2-0.3,2.9-2,3.8c-12.3,6.3-24.6,12.5-36.8,19c-3.1,1.7-4,0.8-4-2.3C1146.9,630.7,1146.7,629.4,1146.6,628.6z"/>
	<path class="st1" d="M1017.1,431.7c2.7-4.2,3.9-8.3,5.6-12.2c1.9-4.4,3.5-8.9,5.3-13.4c2.3-5.9,2.3-5.8,8.7-5.1
		c3.1,0.3,3,1.4,1.9,3.8c-5.7,12.4-11.4,24.9-17,37.3c-0.8,1.7-1.4,3.4-3.7,2.6c-2.5-0.9-6.1,1.1-7.1-3.6
		c-2.8-13.5-6.1-26.9-9.2-40.4c-0.5-2.2-0.3-3.5,2.4-2.9c0.1,0,0.3,0,0.4,0c6.6,0.4,6.6,0.4,7.7,6.9
		C1013.5,413.5,1014.8,422.3,1017.1,431.7z"/>
	<path class="st1" d="M1135.4,564.4c-0.4-2,1-1.9,2.3-2.2c9.7-2.5,19.3-5.3,29.1-7.4c4.1-0.9,4.5-2.6,3.2-5.9
		c-0.6-1.4-0.6-3-1.1-4.4c-1.2-3-0.5-4.5,2.9-5.2c2.6-0.5,3.7-0.5,4.4,2.5c2.3,9.9,4.8,19.7,7.6,29.4c1,3.4-1.2,3.2-3,3.7
		c-1.8,0.5-4,1.8-4.4-1.6c0-0.4-0.2-0.7-0.3-1.1c-1-3-0.5-7.5-2.9-8.6c-2.3-1-6,1-9,1.8c-7.6,1.9-15.2,3.8-22.8,5.9
		c-3,0.9-4.5,0.4-4.8-2.8C1136.2,567,1135.7,565.7,1135.4,564.4z"/>
	<path class="st1" d="M913.7,908.2c-0.4,1.2-0.9,2.5-1.3,3.8c-3.8,11.6-7.6,23.1-11.3,34.7c-0.8,2.5-1.5,3.5-4.4,2.4
		c-5.8-2.2-5.9-2-4-7.9c2.3-7,4.5-14,6.9-20.9c0.8-2.2,0.4-3.3-1.9-3.8c-1.6-0.4-3.1-1.2-4.7-1.4c-3.6-0.5-3.7-2.4-2.5-5.2
		c0.6-1.3,1.1-1.7,2.5-1.3c4.7,1.1,8.9,0.5,12.7-2.9c2.2-2,4.5,0.5,6.7,0.8C913.4,906.6,913.9,907.1,913.7,908.2z"/>
	<path class="st1" d="M1167.4,514.8c-0.1,1.3-1.2,1.3-1.9,1.7c-12.4,5.4-24.8,10.7-37.2,16.1c-1.7,0.7-2.3,0.4-3.1-1.2
		c-3.2-6.7-3.3-6.6,3.3-9.5c10.7-4.6,21.4-9.1,32-13.9c2.7-1.2,4-1,4.8,2C1165.8,511.7,1166.7,513.2,1167.4,514.8z"/>
	<path class="st10" d="M965.5,725.1c-2.9,6.4-2.4,11.9-0.6,17.2c0.9,2.6,0.4,4.4-1.3,6.5c-6.5,7.8-12.8,15.7-17.7,24.7
		c-4.1,7.6-6.8,15.5-6.9,24.2c0,1.5-0.7,2.7-1.4,3.8c-5.3,8.8-11.9,16.8-16,26.3c-0.9,2.1-2.5,1.7-4.1,1
		c-7.3-2.9-10.3-12.3-6.2-19.6c1.5-2.8,3.5-5.4,6-7.3c8.5-6.7,11.8-15.6,12.7-26.1c1.1-11.6,3.4-23.1,8.9-33.6
		c0.4-0.8,0.7-1.7,1.3-2.3c5.6-5.9,6.2-13.4,7.1-21c2.8-23.3,12.1-43.8,28.2-61.1c1.7-1.9,2.1-3.6,1.4-5.8c-0.9-2.8-1.8-5.5-2.7-8.3
		c-1.1-3.5-1.9-6.7-6.6-7.6c-3.6-0.7-4.6-4.7-5.8-8.5c-3.2,3.6-6.2,7-9.2,10.3c-4.4,4.8-9.2,9-14.5,12.8c-2.5,1.8-4.5,1.5-6.8-0.3
		c-5.3-4.3-9.5-9.5-12.9-15.4c-2.6-4.5-5.2-9-9.1-12.6c-3.1-2.9-6.7-4.7-10.9-4.7c-4.6,0-7.3-2.4-9-6.3c-1.8-4-1.9-8.4-2.7-12.6
		c-0.3-1.8,0.9-2.2,2.2-2.5c4.6-1.4,8.7-0.5,12.6,2.2c7,4.8,12.4,11.2,18,17.4c4.5,4.9,9.7,8.9,14.5,13.4c1.7,1.6,3,1.4,4.8-0.2
		c5.9-5.3,11.2-11,15-18.1c2.7-5.1,7.1-7.7,12.7-8.5c4.5-0.6,7.2-4.2,6.6-8.6c-0.8-5.7-2.1-11.1-6.1-15.6c-1.4-1.6-2.5-3.5-3.4-5.5
		c-1.3-2.7-3.8-5-3.1-8.3c1.2-5.8,2.1-11.8,6.6-16.3c2.8-2.7,5.8-3.9,9.6-2.2c2,0.9,3.9,1.1,6.1-0.2c2.6-1.6,6.7-0.3,8.3,2.4
		c1.8,2.9,3.3,6,4.8,9.1c1.8,3.7,2,7.5,0,11.3c-2.7,5-3.6,11.1-8.7,14.8c-1.2,0.9,0.8,6.4,2.5,7.3c2.6,1.5,6.1,0.6,7.7-2
		c2.4-3.7,5.9-6.1,9.9-7.3c5.8-1.9,10.3-5.9,15.4-8.8c1-0.6,1.4-1.4,1.2-2.5c-0.7-4.6,0.5-9.1,1.3-13.6c0.4-2.5,0.7-5,0.6-7.6
		c-0.1-3-1.1-5-3.7-6.9c-8.2-6-9.8-18.2-3.9-26.3c1.3-1.8,2.1-2.1,3.6-0.2c3.9,4.8,7.6,9.8,10.7,15.2c4.4,7.7,4.3,16.3,5,24.7
		c0.6,7.4,0.9,14.9,0.5,22.4c-0.1,2.3-1,3.7-2.6,5.1c-5.1,4.4-10.8,8-16.7,11.2c-5.9,3.3-8.5,9.1-9.6,14.8c-1.8,9.3-3.5,18.7-5.4,28
		c-0.6,2.7-0.4,5.1,0.6,7.8c3.5,9.4,6.2,19,6.8,29.1c0.5,9.4-3.1,16.7-10.6,22.3c-5.9,4.4-11.6,9-17.4,13.6c-1,0.8-2.6,1.4-1.1,3.2
		c7.9,9.3,9.2,20.6,9.3,32.2c0,4.9,0.2,9.9,0,14.8c-0.2,3.7,0.8,6.9,3.1,9.8c3.4,4.3,3.3,6,0.2,10.5c-2.2,3.2-4.5,6.4-6.6,9.8
		c-1.1,1.7-2,3.8-1.8,5.7c0.5,4.9-2.7,7.1-6.2,8.9c-3.5,1.8-7.4,2.6-11.4,2.7c-2.4,0.1-2.8-1.2-2.2-3.2c0.1-0.4,0.3-0.7,0.5-1
		c5.3-7.1,7.6-15.4,9-23.9c0.1-0.9,0.3-1.9,0.9-2.5c3.5-4,1.6-7.9,0.2-12C972.6,752.3,967.3,739.7,965.5,725.1z"/>
	<path class="st10" d="M1020,645.8c3.5-4.7,6.7-8.9,9.9-13.2c1.6-2.1,3-4.4,4.6-6.5c5.5-7.1,8.7-14.8,7.2-23.9
		c-0.5-3.4,0.5-5.1,4.3-5.1c2.9,0,5.8-0.6,8.7-1.1c2.4-0.5,3.1,0.2,3.1,2.7c-0.1,11,0,22.1-0.1,33.1c0,3,1,4.6,4,4.7
		c3.2,0.1,4.3-1.6,4.2-4.8c-0.2-10.9,0.1-21.8-0.2-32.7c-0.1-3.8,1.2-5.1,4.6-5.7c3.1-0.5,6.1-1.5,9.2-2.5c2.3-0.8,2.8,0.1,2.8,2.3
		c-0.1,6.1,0,12.2-0.1,18.3c0,2,0.1,3,2.7,2.5c5.7-1.1,5.8-1,5.8,4.7c0,7.6-0.1,15.2,0,22.8c0,2.3-0.4,3.6-3,3.5
		c-5.9-0.4-8.3,2.9-8.5,8.3c-0.2,4.1-2.1,5.6-6.5,5.4c-9-0.4-18-0.2-27-0.1c-2.2,0-3.7-0.5-4.2-2.8c-1.7-6.9-5.9-10-13-9.3
		C1025.8,646.6,1023.3,646,1020,645.8z"/>
	<path class="st10" d="M928.1,742.6c-1.3-0.6-2.2-1.1-3.1-1.5c-7.8-3.5-13-0.1-13.1,8.4c-0.1,5.1,0,10.2-0.3,15.2
		c-0.8,13.7-8.8,19.9-22.4,17.3c-10.4-2-14.6-7-14.6-17.4c0-11.3-0.1-22.6,0.1-33.9c0.1-5.4-0.3-10.2-7.4-13
		c5.4-1.8,9.6-3.3,13.8-4.6c6.7-2.1,8.3-1.3,8.6,5.9c0.4,10.9,0.2,21.8,0.3,32.7c0,1.9-0.1,3.8,2,5c3.5,1.8,6.6,0,6.6-4.3
		c0-8.5-0.2-17-0.2-25.5c0-2.7-0.1-5.4,0.8-7.9c1.7-5.1,7.7-8.9,13.9-8.9c7.1,0,11.9,3.1,13.8,9.1
		C928.3,724.2,929,734.8,928.1,742.6z"/>
	<path class="st10" d="M906.6,668.1c11.8,0,23.6,0.1,35.4-0.1c3,0,3.6,0.9,3.5,3.6c-0.2,5.4-0.1,10.9,0,16.4c0,1.9-0.3,3-2.6,3
		c-24.2-0.1-48.5-0.1-72.7,0c-1.8,0-2.5-0.5-2.5-2.4c0.1-6,0.1-11.9,0-17.9c0-2.5,1.3-2.5,3.1-2.5c11.9,0,23.8,0,35.8,0
		C906.6,668.2,906.6,668.2,906.6,668.1z"/>
	<path class="st10" d="M1058.6,691c-11.8,0-23.6-0.1-35.4,0.1c-2.7,0-3.8-0.5-3.7-3.5c0.3-5.4,0.2-10.9,0-16.4c-0.1-2.4,0.7-3,3-3
		c24,0,48,0,71.9-0.1c2.1,0,2.9,0.6,2.8,2.8c-0.1,5.6-0.2,11.2,0,16.7c0.1,2.7-0.7,3.4-3.4,3.4C1082.2,690.9,1070.4,691,1058.6,691z
		"/>
	<path class="st10" d="M1031.5,736.7c0,9.9-0.1,19.8,0,29.7c0,2.4-0.6,3.3-3.2,3.2c-5.5-0.2-10.9-0.1-16.4,0c-2.1,0-3.2-0.3-3.1-2.9
		c0.1-20.3,0.1-40.6,0-60.9c0-2.5,1-2.9,3.2-2.8c5.5,0.1,10.9,0.2,16.4,0c2.6-0.1,3.2,0.8,3.2,3.3
		C1031.5,716.4,1031.5,726.5,1031.5,736.7z"/>
	<path class="st10" d="M887.5,520.6c5.3,7.8,5.7,8.1,10,9.6c-4.8-8.1-7.1-16.2-2.5-24.7c2.3-4.3,6.2-6.6,11.1-7.8
		c-0.6,4.8-2,9.5,0.3,14.2c2.1-0.7,3.3-2.4,4.8-3.7c1.2-1.1,2-1.4,2.8,0.4c3.4,8,6.4,16,5.3,24.9c-0.3,2-0.8,3.9-2.1,6
		c-1.1-4.4-1.1-9.1-6-11.2c-0.6,2.6,0.7,4.6,1.3,6.7c1.8,6.6,2.8,13.1,0.1,19.7c-1.5,3.6-3.6,6.1-8,5.2c-0.5-0.1-1-0.1-1.5,0
		c-7,1.6-10-2.7-12.4-8.1C886.3,542,886.3,531.8,887.5,520.6z"/>
	<path class="st10" d="M975.5,859c0-3.4-0.2-6.9,0.1-10.3c0.2-2.8-0.9-3.4-3.5-3.3c-5.8,0.2-11.7,0-17.5,0.2
		c-2.2,0.1-2.7-0.7-2.7-2.8c-0.1-8.5-0.2-8.5,8.5-8.5c1.5,0,3.1-0.2,4.6,0c7.1,1,13.2-0.3,16.9-7.3c1-1.9,2.3-1.3,3.1,0.2
		c3.7,6.9,9.8,7.8,16.7,7.1c3.5-0.3,7.1-0.1,10.7,0c1.1,0,2.6-0.4,2.6,1.3c0.1,2.9,0.1,5.8,0,8.7c-0.1,1.7-1.7,1.2-2.7,1.2
		c-5.8,0-11.7,0.1-17.5-0.2c-2.9-0.1-3.7,0.8-3.6,3.6c0.2,6.7-0.1,13.5,0.1,20.2c0.1,3.1-1,4-3.9,3.7c-2.8-0.2-5.6-0.2-8.4,0
		c-2.6,0.2-3.7-0.5-3.5-3.3C975.7,866.1,975.5,862.5,975.5,859z"/>
	<path class="st10" d="M997.9,822.2c-7.5,0-13.3-3.3-18.1-8.9c-1.1-1.3-1.5-2.2,0.7-2.9c2.1-0.7,4.2-1.8,6.1-2.9
		c3-1.7,4.9-4,5.1-7.8c0.2-4.1,2.5-7.6,4.5-11.1c2.1-3.6,5.7-6.5,5.7-11.3c0-2,2.1-1,3-0.7c8.2,2.5,13.9,7.9,16.1,16.2
		C1024.9,808,1013.6,822.2,997.9,822.2z"/>
	<path class="st10" d="M1078.5,810.7c-0.4-5.3,0.5-9.8,0-14.4c-0.4-3.8-1.7-7-4.5-9.7c-8.6-8.4-17.1-16.9-25.6-25.4
		c-7.4-7.4-7.8-12.8-1.3-21.6c2.5,10,11.3,14.5,17.8,20.9c6.2,6.2,12.9,11.8,18.9,18.2c6.2,6.6,5.7,14.5,5.6,22.5
		c0,0.8-0.6,1.4-1.2,1.9C1085.1,805.5,1082.1,807.9,1078.5,810.7z"/>
	<path class="st10" d="M1084.5,774.9c-1-7.7-7-11.4-11.8-15.9c-7.5-7-15-14-22.6-21c-7.6-7-8.2-15.5-7.7-24.7c0.1-1,0.5-1.6,1.3-2.2
		c3-2.3,5.9-4.7,9.4-7.5c0,3.9,0.1,7.2,0,10.6c-0.3,6.1,1.6,10.9,6.2,15.2c8.4,7.8,16.3,16,24.4,24
		C1090.7,760.5,1091,766.4,1084.5,774.9z"/>
	<path class="st10" d="M1045.8,490.5c5.8,0.2,10.3,2.6,12.5,7.9c2.3,5.5,1.3,10.8-2.8,15.2c-5.6,6-13.4,7.3-20.9,9.1
		c-1.6,0.4-6.7-6.3-6.3-8.1c1.1-5.4,1.9-11,4.7-15.9C1035.9,493.6,1040,490.5,1045.8,490.5z"/>
	<path class="st10" d="M1019,854.9c6.5,0,12.9,0.1,19.4-0.1c2.6-0.1,2.9,1,2.6,3.2c-1.6,9.4-11.6,17.4-21.8,17.3
		c-10.9-0.1-20.9-8.1-22.2-17.7c-0.3-2.4,0.6-2.8,2.7-2.7C1006.1,854.9,1012.6,854.9,1019,854.9z"/>
	<path class="st10" d="M947.7,854.9c6.1,0,12.2,0,18.3,0c4.1,0,4.4,0.5,3.2,4.7c-4.1,14.6-23.4,20.6-35.3,11
		c-4.2-3.4-7-7.6-8.3-12.9c-0.5-2.1,0-3,2.3-2.9C934.5,855,941.1,854.9,947.7,854.9z"/>
	<path class="st10" d="M1079.4,739.9c-6.4-6.1-12.6-12.1-18.8-18c-2.4-2.2-0.8-5.1-1.3-7.5c-1-4.5,1.6-7.4,4.6-10.1
		c0.6-0.6,1.4-1.7,2.1-0.6c2,2.8,5.4,4.7,5.2,8.9c-0.2,5-0.1,10.1-0.1,15.9c4.7-2.9,5.7-6.9,5.8-11.2c0.2-4.3,0-8.5,0-12.9
		c12.3,8.1,16.4,11.9,8.7,26.3C1084,733.8,1081.7,736.6,1079.4,739.9z"/>
	<path class="st10" d="M1054.6,811.1c-4-3.6-7.5-6.4-10.6-9.5c-2.9-2.9-1.9-6.7-1.3-10.1c1.1-6.2,5.3-10.8,8.7-15.9
		c0.8-1.2,1.4-0.6,2.1,0.1c6,5.8,12.2,11.4,18.1,17.4c2,2.1,0.6,5.4,0.8,8.1c0.1,2,0.5,4.2-1.4,5.6c-1.8,1.3-3.2,5-4.9,3.8
		c-2.6-1.7-5.5-4.2-5.6-8.1c-0.1-5.3,0-10.6,0-16.1c-4,2.1-5.6,5.1-5.8,10.8C1054.5,801.6,1054.6,805.8,1054.6,811.1z"/>
	<path class="st10" d="M902.5,564.9c3.9,0,7.9,0.2,11.8,0c3.2-0.2,2.6,1.9,2.6,3.7c0,1.8,0.7,4.2-2.5,3.7c-3.2-0.5-4.4,0.6-4.6,4
		c-0.4,5.8-1.4,11.6-2,17.4c-0.2,2-0.6,3-2.6,1.3c-0.3-0.2-0.6-0.6-0.9-0.7c-7.6-2-8.2-8.1-8.7-14.3c-0.1-1.3-0.6-2.5-0.6-3.7
		c0.1-3.1-1.2-4.5-4.3-3.9c-3.1,0.5-2.8-1.5-2.8-3.5c0.1-1.9-0.7-4.2,2.8-4C894.6,565.1,898.5,564.9,902.5,564.9z"/>
	<path class="st12" d="M906.2,639.3c0,3.8-0.1,7.6,0,11.4c0.1,2-1,2.5-2.5,2.1c-1.7-0.5-4.8,1.8-5-2c-0.4-8.6-0.6-17.2-0.9-25.8
		c-0.1-1.9,0.7-2.4,2.5-2.2c4.5,0.4,6.8,3,6.5,7.4c-0.1,1.5-0.1,3-0.2,4.5C906.5,636.3,906.4,637.8,906.2,639.3
		C906.3,639.3,906.2,639.3,906.2,639.3z"/>
	<path class="st14" d="M1015,541.4c0.2,0.9-0.3,1.3-0.7,1.8c-2.6,2.8-5.2,5.6-7.7,8.4c-1,1.1-1.7,0.9-2.8,0
		c-4.6-3.8-4.7-4.1-0.5-8.5c2-2.1,4.1-4.2,5.9-6.4c1.6-1.9,2.5-1.5,3.4,0.5C1013.4,538.7,1014.3,540.1,1015,541.4z"/>
	<path class="st10" d="M805.7,675.4c0,6.6,0,6.6-6.5,6.6c-5.6,0-5.6,0-5.8-5.8c-0.1-1.6-0.1-3.3,0-4.9c0.3-4.3,2.4-6.3,6.5-6.2
		c3.5,0,5.4,2.1,5.7,6.2C805.8,672.6,805.7,674,805.7,675.4z"/>
	<path class="st14" d="M786.3,675.8c0.1,6.1,0.1,5.9-6.2,6.2c-4,0.2-5.2-1.1-4.7-4.8c0.3-2.1,0.2-4.3,0.3-6.4
		c0.2-3.4,2.1-4.9,5.4-5.1c3.5-0.2,4.8,1.9,5.1,4.8C786.5,672.3,786.3,674.1,786.3,675.8z"/>
	<path class="st12" d="M1063.3,942c-4.4,0-7.4-2.8-7.4-6.9c0-4.4,4.3-7.8,10-7.8c4.2,0,7.5,3,7.5,7
		C1073.3,938.6,1069,941.9,1063.3,942z"/>
	<path class="st14" d="M1058.6,921.1c-3.6,0-6.2-2.4-6.1-5.7c0.1-3.4,3.7-6.3,8.1-6.4c3.7-0.1,6.5,2.5,6.5,5.9
		C1067,918.3,1063.3,921.1,1058.6,921.1z"/>
	<path class="st14" d="M1136.3,470.3c0,2.9-1.5,4.3-3.5,5.4c-1.8,1-3.7,0.9-5.3-0.5c-3-2.6-5-6-7.4-9.1c-1.1-1.4,0.2-1.9,1-2.3
		c2.8-1.4,5.3-6.3,7.8-4.5C1132.4,461.7,1135.3,465.9,1136.3,470.3z"/>
	<path class="st12" d="M949.3,952.3c-5.3-0.1-8.9-3.1-8.8-7.3c0.1-4.3,3.5-7.1,8.6-7c5.6,0.1,9.1,3.1,8.9,7.6
		C957.9,949.8,954.6,952.4,949.3,952.3z"/>
	<path class="st14" d="M950.9,930.9c-4.6,0-7.8-2.4-7.7-5.9c0-3.5,2.7-5.8,6.9-5.9c4.5-0.1,7.7,2.4,7.7,6
		C957.9,928.6,955.1,930.9,950.9,930.9z"/>
	<path class="st14" d="M808.1,539.4c-0.4,3.8-1.1,7.9-3.1,10.7c-2.2,3-5.4-0.9-8.3-1c-1.2,0-3-0.4-2.3-2.5c1.1-3.5,1.7-7.1,3.7-10.3
		c1.4-2.3,3.3-3.4,6.1-2.5C806.7,534.7,808.4,536.3,808.1,539.4z"/>
	<path class="st21" d="M870.7,433.9c5.3,2.6,9.1,6.7,13.6,10.6c-3.1,1.9-6,3.6-9.2,5.6C873.5,444.5,872.1,439.2,870.7,433.9z"/>
	<path class="st21" d="M1179.8,610.5c-5.5,2.5-10.2,4.6-14.9,6.8c-1.6,0.8-2.3,0.5-2.5-1.2c0-0.1,0-0.2-0.1-0.4
		c-1.7-8.2-1.7-8.2,6.5-7.1c2.7,0.4,5.5,0.8,8.2,1.2C1177.7,609.9,1178.3,610.1,1179.8,610.5z"/>
</g>
</svg>
