<?xml version="1.0" encoding="utf-8"?>
<!-- Generator: Adobe Illustrator 25.0.0, SVG Export Plug-In . SVG Version: 6.00 Build 0)  -->
<svg version="1.1" id="Calque_1" xmlns="http://www.w3.org/2000/svg" xmlns:xlink="http://www.w3.org/1999/xlink" x="0px" y="0px"
	 viewBox="0 0 1360.6 1360.6" style="enable-background:new 0 0 1360.6 1360.6;" xml:space="preserve">
<style type="text/css">
	.st0{fill:#C82D56;}
	.st1{fill:#FFFFFF;}
	.st2{fill:#3F3F3F;}
</style>
<path class="st0" d="M125.3,591.6l1.6,57l-3.1-3.1l30.5-0.7l3.7-0.1l0.1,3.9l4.3,236.7l2.8,236.7c1,78.9,1.9,157.8,2.3,236.7
	l1.3,236.7c0.5,157.8,1.1,315.5-0.3,473.3l-5.6,473.3l-8.8-8.6l182-0.6l182-1.6c60.7-0.8,121.3-1.4,182-2.7l182-3.4l-5.9,6
	c-1-208.5-3.9-417-6.3-625.5c-1.9-208.5-3.4-417-4.1-625.5l-1.4-312.7l-0.3-312.7l1.1-312.7L867.8,29L891,40.7l-189.6,138
	L510.5,316.1L318.6,453.8L125.3,591.6z M122.3,590.1l186-143.1l187.4-143.3l188.4-143.5L873.7,17.3l23-17.3l0.2,29l2.4,312.7
	l1.1,312.7l-0.3,312.7l-1.4,312.7c-0.7,208.5-2.1,417-4.1,625.5c-2.3,208.5-5.2,417-6.3,625.5l0,5.9l-5.9,0.1l-182,2.1
	c-60.7,0.5-121.3,1.8-182,2.8l-182,3.9l-182,4.9l-8.7,0.2l-0.1-8.9l-5.6-473.3c-1.4-157.8-0.8-315.5-0.3-473.3l1.3-236.7
	c0.4-78.9,1.3-157.8,2.3-236.7l2.8-236.7l4.3-236.7l3.8,3.8l-30.5-0.7l-3.2-0.1l0.1-3L122.3,590.1z"/>
<g>
	<rect x="447.6" y="465.5" class="st1" width="757.7" height="1867"/>
	<path class="st2" d="M1206.5,2333.7l-187.1,4c-62.6,1.5-125.9,2.6-189.3,3.6l-190.8,3.1l-191.7,1.9l-13.8,0.1l-0.1-14
		c-0.9-155.6-1.7-311.2-0.9-466.8l1-116.7l1.7-116.7L439,1399c2.7-155.6,3.8-311.2,3.3-466.8l-1.1-233.4l-2.8-233.4l-0.1-9.1
		l9.3-0.1l189.4-2.6l189.4-2l189.4-1.6l189.4-1l16.3-0.1l0.1,16.4c0.8,156.5,1.7,313.4,1.3,470.1c0.1,78.4-0.7,156.7-1.1,235
		c-0.4,78.3-1.1,156.5-2.1,234.5c-1.9,155.9-3,312.1-5.8,466.7L1206.5,2333.7z M1204.1,2331.3l-7.6-471.5
		c-2.7-156.5-3.8-311.5-5.8-466.8c-1-77.6-1.7-155-2.1-232.3c-0.4-77.3-1.2-154.6-1.1-231.8c-0.4-154.4,0.5-308.7,1.3-463.4
		l16.4,16.4l-189.4-1l-189.4-1.6l-189.4-2l-189.4-2.6l9.2-9.2L454,698.9l-1.1,233.4c-0.5,155.6,0.6,311.2,3.3,466.8l3.4,233.4
		l1.7,116.7l1,116.7c0.8,155.6,0.1,311.2-0.9,466.8l-13.8-13.8l187.1,1.9l188.1,3.1c62.8,1,125.9,2.1,189.5,3.6L1204.1,2331.3z"/>
</g>
<path class="st0" d="M1138.2,814l-62.6,3.1c-21.3,1.2-43.2,2.2-65.2,2.8l-5.7,0.2l-0.2-6.1c-1.3-40-2.2-79.9-2.7-119.9
	c-0.8-40-0.7-79.9-0.9-119.9l-0.1-9.7l9.7,0.1c42.6,0.2,85.3,0.2,127.9,1l8.7,0.2l-0.1,8.4c-0.5,41-1.8,81.9-3.3,122.1L1138.2,814z
	 M1138.2,814l-5.3-122.1c-1.6-39.8-2.8-78.8-3.3-117.7l8.6,8.6c-42.6,0.8-85.3,0.8-127.9,1l9.6-9.6c-0.3,40-0.2,79.9-0.9,119.9
	c-0.5,40-1.5,79.9-2.7,119.9l-5.9-5.9c20.6,0.6,41.4,1.6,62.6,2.8L1138.2,814z"/>
<path class="st0" d="M904.8,814l-62.6,3.1c-21.3,1.2-43.2,2.2-65.2,2.8l-5.7,0.2l-0.2-6.1c-1.3-40-2.2-79.9-2.7-119.9
	c-0.8-40-0.7-79.9-0.9-119.9l-0.1-9.7l9.7,0.1c42.6,0.2,85.3,0.2,127.9,1l8.7,0.2l-0.1,8.4c-0.5,41-1.8,81.9-3.3,122.1L904.8,814z
	 M904.8,814l-5.3-122.1c-1.6-39.8-2.8-78.8-3.3-117.7l8.6,8.6c-42.6,0.8-85.3,0.8-127.9,1l9.6-9.6c-0.3,40-0.2,79.9-0.9,119.9
	c-0.5,40-1.5,79.9-2.7,119.9l-5.9-5.9c20.6,0.6,41.4,1.6,62.6,2.8L904.8,814z"/>
<path class="st0" d="M671.4,814l-62.6,3.1c-21.3,1.2-43.2,2.2-65.2,2.8l-5.7,0.2l-0.2-6.1c-1.3-40-2.2-79.9-2.7-119.9
	c-0.8-40-0.7-79.9-0.9-119.9l-0.1-9.7l9.7,0.1c42.6,0.2,85.3,0.2,127.9,1l8.7,0.2l-0.1,8.4c-0.5,41-1.8,81.9-3.3,122.1L671.4,814z
	 M671.4,814l-5.3-122.1c-1.6-39.8-2.8-78.8-3.3-117.7l8.6,8.6c-42.6,0.8-85.3,0.8-127.9,1l9.6-9.6c-0.3,40-0.2,79.9-0.9,119.9
	c-0.5,40-1.5,79.9-2.7,119.9l-5.9-5.9c20.6,0.6,41.4,1.6,62.6,2.8L671.4,814z"/>
<path class="st0" d="M1138.2,1180l-62.6,3.1c-21.3,1.2-43.2,2.2-65.2,2.8l-5.7,0.2l-0.2-6.1c-1.3-40-2.2-79.9-2.7-119.9
	c-0.8-40-0.7-79.9-0.9-119.9l-0.1-9.7l9.7,0.1c42.6,0.2,85.3,0.2,127.9,1l8.7,0.2l-0.1,8.4c-0.5,41-1.8,81.9-3.3,122.1L1138.2,1180z
	 M1138.2,1180l-5.3-122.1c-1.6-39.8-2.8-78.8-3.3-117.7l8.6,8.6c-42.6,0.8-85.3,0.8-127.9,1l9.6-9.6c-0.3,40-0.2,79.9-0.9,119.9
	c-0.5,40-1.5,79.9-2.7,119.9l-5.9-5.9c20.6,0.6,41.4,1.6,62.6,2.8L1138.2,1180z"/>
<path class="st0" d="M904.8,1180l-62.6,3.1c-21.3,1.2-43.2,2.2-65.2,2.8l-5.7,0.2l-0.2-6.1c-1.3-40-2.2-79.9-2.7-119.9
	c-0.8-40-0.7-79.9-0.9-119.9l-0.1-9.7l9.7,0.1c42.6,0.2,85.3,0.2,127.9,1l8.7,0.2l-0.1,8.4c-0.5,41-1.8,81.9-3.3,122.1L904.8,1180z
	 M904.8,1180l-5.3-122.1c-1.6-39.8-2.8-78.8-3.3-117.7l8.6,8.6c-42.6,0.8-85.3,0.8-127.9,1l9.6-9.6c-0.3,40-0.2,79.9-0.9,119.9
	c-0.5,40-1.5,79.9-2.7,119.9l-5.9-5.9c20.6,0.6,41.4,1.6,62.6,2.8L904.8,1180z"/>
<path class="st0" d="M671.4,1180l-62.6,3.1c-21.3,1.2-43.2,2.2-65.2,2.8l-5.7,0.2l-0.2-6.1c-1.3-40-2.2-79.9-2.7-119.9
	c-0.8-40-0.7-79.9-0.9-119.9l-0.1-9.7l9.7,0.1c42.6,0.2,85.3,0.2,127.9,1l8.7,0.2l-0.1,8.4c-0.5,41-1.8,81.9-3.3,122.1L671.4,1180z
	 M671.4,1180l-5.3-122.1c-1.6-39.8-2.8-78.8-3.3-117.7l8.6,8.6c-42.6,0.8-85.3,0.8-127.9,1l9.6-9.6c-0.3,40-0.2,79.9-0.9,119.9
	c-0.5,40-1.5,79.9-2.7,119.9l-5.9-5.9c20.6,0.6,41.4,1.6,62.6,2.8L671.4,1180z"/>
<path class="st0" d="M1138.2,1531.7l-62.6,3.1c-21.3,1.2-43.2,2.2-65.2,2.8l-5.7,0.2l-0.2-6.1c-1.3-40-2.2-79.9-2.7-119.9
	c-0.8-40-0.7-79.9-0.9-119.9l-0.1-9.7l9.7,0.1c42.6,0.2,85.3,0.2,127.9,1l8.7,0.2l-0.1,8.4c-0.5,41-1.8,81.9-3.3,122.1
	L1138.2,1531.7z M1138.2,1531.7l-5.3-122.1c-1.6-39.8-2.8-78.8-3.3-117.7l8.6,8.6c-42.6,0.8-85.3,0.8-127.9,1l9.6-9.6
	c-0.3,40-0.2,79.9-0.9,119.9c-0.5,40-1.5,79.9-2.7,119.9l-5.9-5.9c20.6,0.6,41.4,1.6,62.6,2.8L1138.2,1531.7z"/>
<path class="st0" d="M904.8,1531.7l-62.6,3.1c-21.3,1.2-43.2,2.2-65.2,2.8l-5.7,0.2l-0.2-6.1c-1.3-40-2.2-79.9-2.7-119.9
	c-0.8-40-0.7-79.9-0.9-119.9l-0.1-9.7l9.7,0.1c42.6,0.2,85.3,0.2,127.9,1l8.7,0.2l-0.1,8.4c-0.5,41-1.8,81.9-3.3,122.1L904.8,1531.7
	z M904.8,1531.7l-5.3-122.1c-1.6-39.8-2.8-78.8-3.3-117.7l8.6,8.6c-42.6,0.8-85.3,0.8-127.9,1l9.6-9.6c-0.3,40-0.2,79.9-0.9,119.9
	c-0.5,40-1.5,79.9-2.7,119.9l-5.9-5.9c20.6,0.6,41.4,1.6,62.6,2.8L904.8,1531.7z"/>
<path class="st0" d="M671.4,1531.7l-62.6,3.1c-21.3,1.2-43.2,2.2-65.2,2.8l-5.7,0.2l-0.2-6.1c-1.3-40-2.2-79.9-2.7-119.9
	c-0.8-40-0.7-79.9-0.9-119.9l-0.1-9.7l9.7,0.1c42.6,0.2,85.3,0.2,127.9,1l8.7,0.2l-0.1,8.4c-0.5,41-1.8,81.9-3.3,122.1L671.4,1531.7
	z M671.4,1531.7l-5.3-122.1c-1.6-39.8-2.8-78.8-3.3-117.7l8.6,8.6c-42.6,0.8-85.3,0.8-127.9,1l9.6-9.6c-0.3,40-0.2,79.9-0.9,119.9
	c-0.5,40-1.5,79.9-2.7,119.9l-5.9-5.9c20.6,0.6,41.4,1.6,62.6,2.8L671.4,1531.7z"/>
<path class="st0" d="M1138.2,1883.4l-62.6,3.1c-21.3,1.2-43.2,2.2-65.2,2.8l-5.7,0.2l-0.2-6.1c-1.3-40-2.2-79.9-2.7-119.9
	c-0.8-40-0.7-79.9-0.9-119.9l-0.1-9.7l9.7,0.1c42.6,0.2,85.3,0.2,127.9,1l8.7,0.2l-0.1,8.4c-0.5,41-1.8,81.9-3.3,122.1
	L1138.2,1883.4z M1138.2,1883.4l-5.3-122.1c-1.6-39.8-2.8-78.8-3.3-117.7l8.6,8.6c-42.6,0.8-85.3,0.8-127.9,1l9.6-9.6
	c-0.3,40-0.2,79.9-0.9,119.9c-0.5,40-1.5,79.9-2.7,119.9l-5.9-5.9c20.6,0.6,41.4,1.6,62.6,2.8L1138.2,1883.4z"/>
<path class="st0" d="M904.8,1883.4l-62.6,3.1c-21.3,1.2-43.2,2.2-65.2,2.8l-5.7,0.2l-0.2-6.1c-1.3-40-2.2-79.9-2.7-119.9
	c-0.8-40-0.7-79.9-0.9-119.9l-0.1-9.7l9.7,0.1c42.6,0.2,85.3,0.2,127.9,1l8.7,0.2l-0.1,8.4c-0.5,41-1.8,81.9-3.3,122.1L904.8,1883.4
	z M904.8,1883.4l-5.3-122.1c-1.6-39.8-2.8-78.8-3.3-117.7l8.6,8.6c-42.6,0.8-85.3,0.8-127.9,1l9.6-9.6c-0.3,40-0.2,79.9-0.9,119.9
	c-0.5,40-1.5,79.9-2.7,119.9l-5.9-5.9c20.6,0.6,41.4,1.6,62.6,2.8L904.8,1883.4z"/>
<path class="st0" d="M671.4,1883.4l-62.6,3.1c-21.3,1.2-43.2,2.2-65.2,2.8l-5.7,0.2l-0.2-6.1c-1.3-40-2.2-79.9-2.7-119.9
	c-0.8-40-0.7-79.9-0.9-119.9l-0.1-9.7l9.7,0.1c42.6,0.2,85.3,0.2,127.9,1l8.7,0.2l-0.1,8.4c-0.5,41-1.8,81.9-3.3,122.1L671.4,1883.4
	z M671.4,1883.4l-5.3-122.1c-1.6-39.8-2.8-78.8-3.3-117.7l8.6,8.6c-42.6,0.8-85.3,0.8-127.9,1l9.6-9.6c-0.3,40-0.2,79.9-0.9,119.9
	c-0.5,40-1.5,79.9-2.7,119.9l-5.9-5.9c20.6,0.6,41.4,1.6,62.6,2.8L671.4,1883.4z"/>
</svg>
